SplineFontDB: 3.0
FontName: Bizmeud
FullName: Bizmeud
FamilyName: Bizmeud
Weight: Regular
Copyright: Generated in 2012 by FontLab Studio. Copyright info pending.
Version: 001.001
ItalicAngle: 0
UnderlinePosition: -50
UnderlineWidth: 50
Ascent: 750
Descent: 250
LayerCount: 2
Layer: 0 0 "Back"  1
Layer: 1 0 "Fore"  0
XUID: [1021 288 1845022521 9314719]
FSType: 4
OS2Version: 2
OS2_WeightWidthSlopeOnly: 0
OS2_UseTypoMetrics: 1
CreationTime: 1327433462
ModificationTime: 1327433462
PfmFamily: 17
TTFWeight: 400
TTFWidth: 5
LineGap: 0
VLineGap: 0
Panose: 2 0 0 0 0 0 0 0 0 0
OS2TypoAscent: 0
OS2TypoAOffset: 1
OS2TypoDescent: 0
OS2TypoDOffset: 1
OS2TypoLinegap: 0
OS2WinAscent: 0
OS2WinAOffset: 1
OS2WinDescent: 0
OS2WinDOffset: 1
HheadAscent: -139
HheadAOffset: 1
HheadDescent: 18
HheadDOffset: 1
OS2SubXSize: 700
OS2SubYSize: 650
OS2SubXOff: 0
OS2SubYOff: 140
OS2SupXSize: 700
OS2SupYSize: 650
OS2SupXOff: 0
OS2SupYOff: 477
OS2StrikeYSize: 50
OS2StrikeYPos: 250
OS2Vendor: 'pyrs'
OS2CodePages: 00000001.00000000
OS2UnicodeRanges: 80000227.40000042.00000000.00000000
Lookup: 1 0 0 "'calt' Contextual Alternates in Latin lookup 0"  {"'calt' Contextual Alternates in Latin lookup 0 subtable"  } ['calt' ('latn' <'dflt' > ) ]
Lookup: 4 0 1 "'liga' Standard Ligatures in Latin lookup 1"  {"'liga' Standard Ligatures in Latin lookup 1 subtable"  } ['liga' ('latn' <'dflt' > ) ]
Lookup: 258 0 0 "'kern' Horizontal Kerning in Latin lookup 0"  {"'kern' Horizontal Kerning in Latin lookup 0 subtable"  } ['kern' ('latn' <'dflt' > ) ]
DEI: 91125
LangName: 1033 "" "" "" "FONTLAB:OTFEXPORT" "" "1.000" "" "" "Quentin Bodin & Jil DANIEL" 
Encoding: UnicodeBmp
UnicodeInterp: none
NameList: Adobe Glyph List
DisplaySize: -24
AntiAlias: 1
FitToEm: 1
WinInfo: 0 16 8
BeginPrivate: 4
BlueValues 23 [-14 0 435 452 700 717]
OtherBlues 9 [-50 -50]
BlueScale 8 0.039625
ExpansionFactor 4 0.06
EndPrivate
BeginChars: 65571 221

StartChar: E
Encoding: 69 69 4
Width: 304
Flags: MW
HStem: 0 89<21 254 109 254 109 254> 345 88<109 254 109 254> 612 88<109 254 109 109>
VStem: 21 88<89 345 433 612> 21 233<0 89 345 433 612 700>
LayerCount: 2
Fore
SplineSet
21 0 m 1xe8
 21 700 l 1
 254 700 l 1
 254 612 l 1xe8
 109 612 l 1
 109 433 l 1xf0
 254 433 l 1
 254 345 l 1xe8
 109 345 l 1
 109 89 l 1xf0
 254 89 l 1
 254 0 l 1
 21 0 l 1xe8
EndSplineSet
EndChar

StartChar: F
Encoding: 70 70 5
Width: 311
Flags: MW
HStem: 0 21G<20 20 20 108> 346 88<108 254 108 254> 612 88<108 253 108 108>
VStem: 20 88<0 346 434 612> 20 234<346 434 346 700>
LayerCount: 2
Fore
SplineSet
20 0 m 1xf0
 20 700 l 1
 253 700 l 1
 253 612 l 1
 108 612 l 1
 108 434 l 1xf0
 254 434 l 1
 254 346 l 1xe8
 108 346 l 1
 108 0 l 1
 20 0 l 1xf0
EndSplineSet
EndChar

StartChar: G
Encoding: 71 71 6
Width: 344
Flags: MW
HStem: 0 88<175 180 180 209 175 288> 558 147<208 217 118.5 289 208 208> 617 88<133.5 176>
VStem: 19 88<125.5 148> 171 117<346 434 0 434> 209 79<88 346 346 346>
LayerCount: 2
Fore
SplineSet
19 145 m 2xd8
 20 554 l 1
 24 669 76 705 161 705 c 0
 273 705 289 621 289 558 c 1
 208 558 l 1xd8
 208 598 195 617 157 617 c 0
 110 617 108 567 108 526 c 2
 107 148 l 1
 108 108 128 88 175 88 c 2
 209 88 l 1
 209 346 l 1xb4
 171 346 l 1
 171 434 l 1
 288 434 l 1
 288 0 l 1
 180 0 l 2
 100 0 78 9 51 37 c 0
 24 65 19 106 19 145 c 2xd8
EndSplineSet
EndChar

StartChar: H
Encoding: 72 72 7
Width: 360
Flags: MW
HStem: 0 21G<20 20 20 108 217 217 217 305> 346 88<108 217 108 217> 680 20G<20 108 108 108 217 305 305 305>
VStem: 20 88<0 346 434 700> 217 88<0 346 346 346 434 700 0 700>
LayerCount: 2
Fore
SplineSet
20 0 m 1
 20 700 l 1
 108 700 l 1
 108 434 l 1
 217 434 l 1
 217 700 l 1
 305 700 l 1
 305 0 l 1
 217 0 l 1
 217 346 l 1
 108 346 l 1
 108 0 l 1
 20 0 l 1
EndSplineSet
EndChar

StartChar: I
Encoding: 73 73 8
Width: 238
Flags: MW
HStem: 0 88<20 58 146 184 20 58> 612 88<20 58 20 184 146 146 146 184>
VStem: 20 164<0 88 0 88 612 700> 58 88<88 612 88 612>
LayerCount: 2
Fore
SplineSet
184 0 m 1xe0
 20 0 l 1
 20 88 l 1xe0
 58 88 l 1
 58 612 l 1xd0
 20 612 l 1
 20 700 l 1
 184 700 l 1
 184 612 l 1xe0
 146 612 l 1
 146 88 l 1xd0
 184 88 l 1
 184 0 l 1xe0
EndSplineSet
EndChar

StartChar: J
Encoding: 74 74 9
Width: 280
Flags: MW
HStem: 0 88<20 70 70 73 20 70> 680 20G<86 224 224 224>
VStem: 136 88<148 612 612 612>
LayerCount: 2
Fore
SplineSet
224 700 m 1
 224 145 l 2
 224 106 220 64 192 37 c 0
 163 10 153 0 73 0 c 2
 20 0 l 1
 20 88 l 1
 70 88 l 2
 103 88 115 89 126 104 c 0
 136 118 136 143 136 148 c 2
 136 612 l 1
 86 612 l 1
 86 700 l 1
 224 700 l 1
EndSplineSet
EndChar

StartChar: K
Encoding: 75 75 10
Width: 352
Flags: MW
HStem: 0 21G<20 108 20 20 243 243 243 333> 680 20G<20 108 108 108 220 308 308 308>
VStem: 20 88<0 128 361 700>
LayerCount: 2
Fore
SplineSet
108 0 m 1
 20 0 l 1
 20 700 l 1
 108 700 l 1
 108 361 l 1
 220 700 l 1
 308 700 l 1
 207 392 l 1
 333 0 l 1
 243 0 l 1
 160 268 l 1
 108 128 l 1
 108 0 l 1
EndSplineSet
EndChar

StartChar: L
Encoding: 76 76 11
Width: 273
Flags: MW
HStem: 0 88<88 220 88 220> 680 20G<0 88 88 88>
VStem: 0 220<0 88 0 700>
LayerCount: 2
Fore
SplineSet
0 0 m 1
 0 700 l 1
 88 700 l 1
 88 88 l 1xe0
 220 88 l 1
 220 0 l 1
 0 0 l 1
EndSplineSet
EndChar

StartChar: M
Encoding: 77 77 12
Width: 456
Flags: MW
HStem: 0 21G<20 103 20 20 317 400 317 317> 678 20G<20 103 103 103 317 400 400 400>
VStem: 20 83<0 317 441 574> 317 83<0 317 317 317 441 574 574 574 0 698>
LayerCount: 2
Fore
SplineSet
317 0 m 1
 317 317 l 1
 210 445 l 1
 103 317 l 1
 103 0 l 1
 20 0 l 1
 20 698 l 1
 103 698 l 1
 210 569 l 1
 317 698 l 1
 400 698 l 1
 400 0 l 1
 317 0 l 1
262 507 m 1
 317 441 l 1
 317 574 l 1
 262 507 l 1
157 507 m 1
 103 574 l 1
 103 441 l 1
 157 507 l 1
EndSplineSet
Substitution2: "'calt' Contextual Alternates in Latin lookup 0 subtable" M.alt
EndChar

StartChar: N
Encoding: 78 78 13
Width: 385
Flags: MW
HStem: 0 21G<21 108 21 21 241 328 241 241> 678 20G<21 108 108 108 241 328 328 328>
VStem: 21 87<0 531 0 698> 241 87<0 317 317 317 483 698 0 698>
LayerCount: 2
Fore
SplineSet
241 0 m 1
 241 317 l 1
 108 531 l 1
 108 0 l 1
 21 0 l 1
 21 698 l 1
 108 698 l 1
 241 483 l 1
 241 698 l 1
 328 698 l 1
 328 0 l 1
 241 0 l 1
EndSplineSet
EndChar

StartChar: O
Encoding: 79 79 14
Width: 366
Flags: MW
HStem: -14 88<144 183.5 144 215.5> 628 89<143.5 185.5>
VStem: 20 88<131 134 134 569> 222 88<134 569 569 572>
LayerCount: 2
Fore
SplineSet
20 131 m 2
 20 572 l 2
 20 666 62 717 165 717 c 0
 268 717 310 666 310 572 c 2
 310 131 l 2
 310 44 265 -14 166 -14 c 0
 66 -14 20 37 20 131 c 2
108 134 m 2
 108 98 123 74 165 74 c 0
 202 74 222 93 222 134 c 2
 222 569 l 2
 222 604 206 628 165 628 c 0
 122 628 108 604 108 569 c 2
 108 134 l 2
EndSplineSet
EndChar

StartChar: P
Encoding: 80 80 15
Width: 348
Flags: MW
HStem: 0 21G<20 20 20 107> 258 84<107 121 121 142 107 156> 618 82<107 138 107 107>
VStem: 20 87<0 258 0 342 342 618> 204 88<401 405 405 555>
LayerCount: 2
Fore
SplineSet
20 0 m 1
 20 700 l 1
 141 700 l 2
 211 700 233 691 260 663 c 0
 287 635 292 584 292 555 c 2
 292 405 l 2
 292 376 287 325 260 297 c 0
 227 264 205 258 107 258 c 1
 107 0 l 1
 20 0 l 1
138 618 m 2
 107 618 l 1
 107 342 l 1
 121 342 l 2
 163 342 180 342 192 354 c 0
 204 366 204 401 204 401 c 1
 204 558 l 1
 204 558 204 589 195 601 c 0
 184 615 171 618 138 618 c 2
EndSplineSet
EndChar

StartChar: Q
Encoding: 81 81 16
Width: 366
Flags: MW
HStem: -59 79<257 340 257 340> -59 142<120 183.5 144 183.5 144 340> 615 89<143.5 185.5>
VStem: 20 88<140 143 143 556> 222 88<143 556 556 559>
LayerCount: 2
Fore
SplineSet
120 -59 m 1xb8
 120 -1 l 1
 42 7 20 73 20 140 c 2
 20 559 l 2
 20 653 62 704 165 704 c 0
 268 704 310 653 310 559 c 2
 310 140 l 2
 310 92 300 46 257 20 c 1
 340 20 l 1
 340 -59 l 1
 120 -59 l 1xb8
108 143 m 2
 108 107 123 83 165 83 c 0x78
 202 83 222 102 222 143 c 2
 222 556 l 2
 222 591 206 615 165 615 c 0
 122 615 108 591 108 556 c 2
 108 143 l 2
EndSplineSet
Substitution2: "'calt' Contextual Alternates in Latin lookup 0 subtable" Q.alt
EndChar

StartChar: R
Encoding: 82 82 17
Width: 341
Flags: MW
HStem: 0 21G<20 20 20 107 221 221 221 311> 618 82<107 138 107 107>
VStem: 20 87<0 258 0 340 340 618> 204 88<399 405 405 555>
LayerCount: 2
Fore
SplineSet
20 0 m 1
 20 700 l 1
 141 700 l 2
 252 700 292 651 292 555 c 2
 292 405 l 2
 292 369 283 304 242 281 c 1
 311 0 l 1
 221 0 l 1
 157 258 l 1
 107 258 l 1
 107 0 l 1
 20 0 l 1
138 618 m 2
 107 618 l 1
 107 340 l 1
 121 340 l 2
 186 340 203 346 204 399 c 1
 204 558 l 1
 205 600 190 618 138 618 c 2
EndSplineSet
Substitution2: "'calt' Contextual Alternates in Latin lookup 0 subtable" R.alt
EndChar

StartChar: S
Encoding: 83 83 18
Width: 358
Flags: MW
HStem: -5 94<144 183.5 144 222> -5 198<109 111 10 222> 526 178<209 212.5 108.5 300 209 209> 610 94<139.5 179>
VStem: 21 94<459 546 459 577.5> 209 91<526 549.5> 224 96<145 250>
LayerCount: 2
Fore
SplineSet
115 526 m 0xac
 115 392 320 378 320 182 c 0
 320 68 280 -5 164 -5 c 0
 54 -5 12 79 10 193 c 1
 111 193 l 1x6a
 111 133 123 89 165 89 c 0
 202 89 224 107 224 183 c 0xaa
 224 317 21 346 21 526 c 0
 21 629 53 704 164 704 c 0
 261 704 300 637 300 526 c 1
 209 526 l 1xac
 209 573 198 610 160 610 c 0x9c
 119 610 115 566 115 526 c 0xac
EndSplineSet
EndChar

StartChar: T
Encoding: 84 84 19
Width: 329
Flags: MW
HStem: 0 21G<110 198 110 110> 611 87<10 110 10 299 198 299 198 198>
VStem: 110 88<0 611 0 611>
LayerCount: 2
Fore
SplineSet
299 611 m 1
 198 611 l 1
 198 0 l 1
 110 0 l 1
 110 611 l 1
 10 611 l 1
 10 698 l 1
 299 698 l 1
 299 611 l 1
EndSplineSet
EndChar

StartChar: U
Encoding: 85 85 20
Width: 359
Flags: MW
HStem: 0 89<115 215 176 215 176 303> 678 20G<20 108 108 108 215 303 303 303>
VStem: 20 88<145 149 149 698> 215 88<89 698 0 698>
LayerCount: 2
Fore
SplineSet
20 145 m 1
 20 698 l 1
 108 698 l 1
 108 149 l 2
 108 106 123 89 176 89 c 2
 215 89 l 1
 215 698 l 1
 303 698 l 1
 303 0 l 1
 171 0 l 2
 59 0 21 45 20 145 c 1
EndSplineSet
EndChar

StartChar: a
Encoding: 97 97 21
Width: 343
Flags: MW
HStem: 0 21G<20 105 20 20 229 314 229 229> 84 85<132 202 132 215 118 202> 415 20G<89 245 245 245>
LayerCount: 2
Fore
SplineSet
245 435 m 1
 314 0 l 1
 229 0 l 1
 215 84 l 1
 118 84 l 1
 105 0 l 1
 20 0 l 1
 89 435 l 1
 245 435 l 1
167 391 m 1
 132 169 l 1
 202 169 l 1
 167 391 l 1
EndSplineSet
Substitution2: "'calt' Contextual Alternates in Latin lookup 0 subtable" a.alt
EndChar

StartChar: aacute
Encoding: 225 225 22
Width: 343
Flags: MW
HStem: 0 21G<20 105 20 20 229 314 229 229> 84 85<132 202 132 215 118 202> 415 20G<89 245 245 245> 604 20G<182 182>
LayerCount: 2
Fore
SplineSet
245 435 m 1
 314 0 l 1
 229 0 l 1
 215 84 l 1
 118 84 l 1
 105 0 l 1
 20 0 l 1
 89 435 l 1
 245 435 l 1
167 391 m 1
 132 169 l 1
 202 169 l 1
 167 391 l 1
96 520 m 1
 182 624 l 1
 248 570 l 1
 142 476 l 1
 96 520 l 1
EndSplineSet
EndChar

StartChar: acute
Encoding: 180 180 23
Width: 833
Flags: MW
HStem: 476 21G<290 290> 604 20G<330 330>
LayerCount: 2
Fore
SplineSet
244 520 m 1
 330 624 l 1
 396 570 l 1
 290 476 l 1
 244 520 l 1
EndSplineSet
EndChar

StartChar: b
Encoding: 98 98 24
Width: 334
Flags: MW
HStem: 0 21G<20 179 20 20> 195 82<105 119 119 148 105 163 105 119>
VStem: 20 85<77 77 77 195 277 364>
LayerCount: 2
Fore
SplineSet
187 428 m 1
 220 413 250 399 255 349 c 0
 257 328 255 288 226 268 c 1
 259 267 279 229 284 221 c 0
 304 190 319 115 286 60 c 0
 252 4 179 0 179 0 c 1
 20 0 l 1
 20 435 l 1
 20 435 165 443 187 428 c 1
105 77 m 1
 156 77 l 1
 156 77 200 76 213 103 c 0
 226 131 222 156 212 171 c 1
 202 183 186 195 163 195 c 2
 105 195 l 1
 105 77 l 1
130 364 m 2
 105 364 l 1
 105 277 l 1
 119 277 l 2
 177 277 171 312 171 322 c 0
 171 356 149 364 130 364 c 2
EndSplineSet
EndChar

StartChar: bracketleft
Encoding: 91 91 25
Width: 227
Flags: MW
HStem: -90 90<109 207 109 207> 701 89<109 207 109 109>
VStem: 19 90<0 701 0 790 0 790> 19 188<-90 0 701 790>
LayerCount: 2
Fore
SplineSet
19 -90 m 1xd0
 19 790 l 1
 207 790 l 1
 207 701 l 1xd0
 109 701 l 1
 109 0 l 1xe0
 207 0 l 1
 207 -90 l 1
 19 -90 l 1xd0
EndSplineSet
EndChar

StartChar: bracketright
Encoding: 93 93 26
Width: 229
Flags: MW
HStem: -90 90<19 117 19 207 19 117> 701 89<19 117 19 207>
VStem: 19 188<-90 0 0 0 701 790 -90 790> 117 90<0 701 701 701>
LayerCount: 2
Fore
SplineSet
207 790 m 1xe0
 207 -90 l 1
 19 -90 l 1
 19 0 l 1xe0
 117 0 l 1
 117 701 l 1xd0
 19 701 l 1
 19 790 l 1
 207 790 l 1xe0
EndSplineSet
EndChar

StartChar: c
Encoding: 99 99 27
Width: 300
Flags: MW
HStem: 0 85<114.5 264 171 264> 350 85<145 264 171 264>
VStem: 20 85<145 290 145 290> 20 244<0 290 0 290>
LayerCount: 2
Fore
SplineSet
171 435 m 2xe0
 264 435 l 1
 264 350 l 1xd0
 171 350 l 2
 119 350 104 332 105 290 c 1
 105 145 l 1xe0
 104 103 119 85 171 85 c 2
 264 85 l 1
 264 0 l 1xd0
 171 0 l 2
 58 0 21 45 20 145 c 1
 20 290 l 1
 21 390 58 435 171 435 c 2xe0
EndSplineSet
EndChar

StartChar: d
Encoding: 100 100 28
Width: 361
Flags: MW
HStem: 0 78<105 162 105 162> 356 79<105 162 105 105>
VStem: 20 85<78 356 78 435 78 435> 228 85<138 145 145 290>
LayerCount: 2
Fore
SplineSet
20 0 m 1
 20 435 l 1
 162 435 l 2
 274 435 313 386 313 290 c 2
 313 145 l 2
 313 49 274 0 162 0 c 2
 20 0 l 1
162 356 m 2
 105 356 l 1
 105 78 l 1
 162 78 l 2
 213 78 228 96 228 138 c 2
 228 296 l 2
 228 338 214 356 162 356 c 2
EndSplineSet
EndChar

StartChar: e
Encoding: 101 101 29
Width: 272
Flags: MW
HStem: 0 85<105 235 105 235> 211 85<105 232 105 232> 350 85<105 235 105 105>
VStem: 20 85<85 211 296 350> 20 215<0 85 350 435>
LayerCount: 2
Fore
SplineSet
235 0 m 1xe8
 20 0 l 1
 20 435 l 1
 235 435 l 1
 235 350 l 1xe8
 105 350 l 1
 105 296 l 1
 232 296 l 1
 232 211 l 1
 105 211 l 1
 105 85 l 1xf0
 235 85 l 1
 235 0 l 1xe8
EndSplineSet
EndChar

StartChar: eacute
Encoding: 233 233 30
Width: 272
Flags: MW
HStem: 0 85<105 235 105 235> 211 85<105 232 105 232> 350 85<105 235 105 105> 604 20G<160 160>
VStem: 20 85<85 211 296 350> 20 215<0 85 350 435>
LayerCount: 2
Fore
SplineSet
235 0 m 1xf4
 20 0 l 1
 20 435 l 1
 235 435 l 1
 235 350 l 1xf4
 105 350 l 1
 105 296 l 1
 232 296 l 1
 232 211 l 1
 105 211 l 1
 105 85 l 1xf8
 235 85 l 1
 235 0 l 1xf4
74 520 m 1
 160 624 l 1
 226 570 l 1
 120 476 l 1
 74 520 l 1
EndSplineSet
EndChar

StartChar: egrave
Encoding: 232 232 31
Width: 272
Flags: MW
HStem: 0 85<105 235 105 235> 211 85<105 232 105 232> 350 85<105 235 105 105> 604 20G<108 108>
VStem: 20 85<85 211 296 350> 20 215<0 85 350 435>
LayerCount: 2
Fore
SplineSet
235 0 m 1xf4
 20 0 l 1
 20 435 l 1
 235 435 l 1
 235 350 l 1xf4
 105 350 l 1
 105 296 l 1
 232 296 l 1
 232 211 l 1
 105 211 l 1
 105 85 l 1xf8
 235 85 l 1
 235 0 l 1xf4
108 624 m 1
 194 520 l 1
 148 476 l 1
 42 570 l 1
 108 624 l 1
EndSplineSet
EndChar

StartChar: equal
Encoding: 61 61 32
Width: 322
Flags: MW
HStem: 46 85<20 275 20 275> 196 85<20 275 20 275>
LayerCount: 2
Fore
SplineSet
20 131 m 1
 275 131 l 1
 275 46 l 1
 20 46 l 1
 20 131 l 1
20 281 m 1
 275 281 l 1
 275 196 l 1
 20 196 l 1
 20 281 l 1
EndSplineSet
EndChar

StartChar: f
Encoding: 102 102 33
Width: 275
Flags: MW
HStem: 0 21G<20 105 20 20> 211 85<105 232 105 232> 350 85<105 235 105 105>
VStem: 20 85<0 211 296 350> 20 212<211 211 211 296 211 435>
LayerCount: 2
Fore
SplineSet
232 211 m 1xe8
 105 211 l 1
 105 0 l 1
 20 0 l 1
 20 435 l 1
 235 435 l 1
 235 350 l 1
 105 350 l 1
 105 296 l 1xf0
 232 296 l 1
 232 211 l 1xe8
EndSplineSet
EndChar

StartChar: g
Encoding: 103 103 34
Width: 360
Flags: MW
HStem: 0 85<136 225 171 225 171 310> 0 233<136 310 193 310 193 310> 300 135<136 309 136 226> 364 71<151 175.5>
VStem: 20 85<145 290 145 309.5> 193 117<148 233 0 233> 225 85<85 148 148 148>
LayerCount: 2
Fore
SplineSet
193 233 m 1x6c
 310 233 l 1x6c
 310 0 l 1
 171 0 l 2
 101 0 79 9 52 37 c 0
 25 65 20 106 20 145 c 2
 20 290 l 2
 20 329 25 370 52 398 c 0
 79 426 101 435 171 435 c 0
 205 435 244 429 272 402 c 0
 300 375 309 353 309 300 c 1
 226 300 l 1xac
 226 300 226 331 211 348 c 0
 199 361 186 364 165 364 c 0
 137 364 124 348 114 333 c 0
 105 319 105 290 105 290 c 1
 105 145 l 1
 105 145 105 117 114 102 c 0
 124 85 138 85 171 85 c 2
 225 85 l 1
 225 148 l 1x9a
 193 148 l 1
 193 233 l 1x6c
EndSplineSet
EndChar

StartChar: grave
Encoding: 96 96 35
Width: 833
Flags: MW
HStem: 476 21G<350 350> 604 20G<310 310>
LayerCount: 2
Fore
SplineSet
310 624 m 1
 396 520 l 1
 350 476 l 1
 244 570 l 1
 310 624 l 1
EndSplineSet
EndChar

StartChar: h
Encoding: 104 104 36
Width: 342
Flags: MW
HStem: 0 21G<19 104 19 19 208 293 208 208> 224 85<104 208 104 208> 415 20G<19 104 104 104 208 293 293 293>
VStem: 19 85<0 224 309 435> 208 85<0 224 224 224 309 435 0 435>
LayerCount: 2
Fore
SplineSet
208 0 m 1
 208 224 l 1
 104 224 l 1
 104 0 l 1
 19 0 l 1
 19 435 l 1
 104 435 l 1
 104 309 l 1
 208 309 l 1
 208 435 l 1
 293 435 l 1
 293 0 l 1
 208 0 l 1
EndSplineSet
EndChar

StartChar: hyphen
Encoding: 45 45 37
Width: 381
Flags: MW
HStem: 168 85<66 321 66 321>
LayerCount: 2
Fore
SplineSet
66 253 m 1
 321 253 l 1
 321 168 l 1
 66 168 l 1
 66 253 l 1
EndSplineSet
EndChar

StartChar: i
Encoding: 105 105 38
Width: 210
Flags: MW
HStem: 0 85<20 52 137 169 20 52> 350 85<20 52 20 169 137 137 137 169>
VStem: 20 149<0 85 0 85 350 435> 52 85<85 350 85 350>
LayerCount: 2
Fore
SplineSet
169 0 m 1xe0
 20 0 l 1
 20 85 l 1xe0
 52 85 l 1
 52 350 l 1xd0
 20 350 l 1
 20 435 l 1
 169 435 l 1
 169 350 l 1xe0
 137 350 l 1
 137 85 l 1xd0
 169 85 l 1
 169 0 l 1xe0
EndSplineSet
EndChar

StartChar: iacute
Encoding: 237 237 39
Width: 210
Flags: MW
HStem: 0 85<20 52 137 169 20 52> 350 85<20 52 20 169 137 137 137 169> 604 20G<116 116>
VStem: 20 149<0 85 0 85 350 435> 52 85<85 350 85 350>
LayerCount: 2
Fore
SplineSet
169 0 m 1xf0
 20 0 l 1
 20 85 l 1xf0
 52 85 l 1
 52 350 l 1xe8
 20 350 l 1
 20 435 l 1
 169 435 l 1
 169 350 l 1xf0
 137 350 l 1
 137 85 l 1xe8
 169 85 l 1
 169 0 l 1xf0
30 520 m 1
 116 624 l 1
 182 570 l 1
 76 476 l 1
 30 520 l 1
EndSplineSet
EndChar

StartChar: j
Encoding: 106 106 40
Width: 270
Flags: MW
HStem: 0 85<20 68 20 68> 415 20G<91 219 219 219>
VStem: 134 85<145 350 350 350>
LayerCount: 2
Fore
SplineSet
219 435 m 1
 219 145 l 2
 219 106 214 65 187 37 c 0
 160 9 138 0 68 0 c 2
 20 0 l 1
 20 85 l 1
 68 85 l 2
 101 85 113 86 124 101 c 0
 134 115 134 140 134 145 c 2
 134 350 l 1
 91 350 l 1
 91 435 l 1
 219 435 l 1
EndSplineSet
EndChar

StartChar: k
Encoding: 107 107 41
Width: 337
Flags: MW
HStem: 0 21G<20 20 20 105 228 228 228 323> 415 20G<20 105 105 105 222 322 322 322>
VStem: 20 85<0 74 240 435>
LayerCount: 2
Fore
SplineSet
20 0 m 1
 20 435 l 1
 105 435 l 1
 105 240 l 1
 222 435 l 1
 322 435 l 1
 206 242 l 1
 323 0 l 1
 228 0 l 1
 152 153 l 1
 105 74 l 1
 105 0 l 1
 20 0 l 1
EndSplineSet
EndChar

StartChar: l
Encoding: 108 108 42
Width: 235
Flags: MW
HStem: 0 85<104 207 104 207> 415 20G<19 104 104 104>
VStem: 19 188<0 85 0 435>
LayerCount: 2
Fore
SplineSet
19 0 m 1
 19 435 l 1
 104 435 l 1
 104 85 l 1xe0
 207 85 l 1
 207 0 l 1
 19 0 l 1
EndSplineSet
EndChar

StartChar: m
Encoding: 109 109 43
Width: 464
Flags: MW
HStem: 0 21G<20 105 20 20 330 415 330 330> 415 20G<20 105 105 105 330 415 415 415>
VStem: 20 85<0 54 173 316> 330 85<0 54 54 54 173 316 316 316 0 435>
LayerCount: 2
Fore
SplineSet
330 0 m 1
 330 54 l 1
 217 185 l 1
 105 54 l 1
 105 0 l 1
 20 0 l 1
 20 435 l 1
 105 435 l 1
 217 304 l 1
 330 435 l 1
 415 435 l 1
 415 0 l 1
 330 0 l 1
268 244 m 1
 330 173 l 1
 330 316 l 1
 268 244 l 1
166 244 m 1
 105 316 l 1
 105 173 l 1
 166 244 l 1
EndSplineSet
Substitution2: "'calt' Contextual Alternates in Latin lookup 0 subtable" m.alt
EndChar

StartChar: minus
Encoding: 8722 8722 44
Width: 388
Flags: MW
HStem: 178 85<79 334 79 334>
LayerCount: 2
Fore
SplineSet
79 263 m 1
 334 263 l 1
 334 178 l 1
 79 178 l 1
 79 263 l 1
EndSplineSet
EndChar

StartChar: n
Encoding: 110 110 45
Width: 345
Flags: MW
HStem: 0 21G<20 105 20 20 211 296 211 211> 415 20G<20 105 105 105 211 296 296 296>
VStem: 20 85<0 274 0 435> 211 85<0 74 74 74 234 435 0 435>
LayerCount: 2
Fore
SplineSet
211 0 m 1
 211 74 l 1
 105 274 l 1
 105 0 l 1
 20 0 l 1
 20 435 l 1
 105 435 l 1
 211 234 l 1
 211 435 l 1
 296 435 l 1
 296 0 l 1
 211 0 l 1
EndSplineSet
EndChar

StartChar: o
Encoding: 111 111 46
Width: 360
Flags: MW
HStem: -12 85<143 185 143 217.5> 366 86<142.5 187>
VStem: 20 85<133 307> 225 85<133 307>
LayerCount: 2
Fore
SplineSet
20 133 m 1
 20 307 l 2
 20 396 62 452 165 452 c 0
 268 452 310 396 310 307 c 2
 310 133 l 2
 310 44 269 -12 166 -12 c 0
 66 -12 14 43 20 133 c 1
105 133 m 2
 105 94 121 73 165 73 c 0
 205 73 225 89 225 133 c 2
 225 307 l 2
 225 345 209 366 165 366 c 0
 120 366 105 345 105 307 c 2
 105 133 l 2
EndSplineSet
EndChar

StartChar: oacute
Encoding: 243 243 47
Width: 375
Flags: MW
HStem: -12 85<143 185 143 217.5> 366 86<142.5 187> 604 20G<198 198>
VStem: 20 85<133 307> 225 85<133 307>
LayerCount: 2
Fore
SplineSet
20 133 m 1
 20 307 l 2
 20 396 62 452 165 452 c 0
 268 452 310 396 310 307 c 2
 310 133 l 2
 310 44 269 -12 166 -12 c 0
 66 -12 14 43 20 133 c 1
105 133 m 2
 105 94 121 73 165 73 c 0
 205 73 225 89 225 133 c 2
 225 307 l 2
 225 345 209 366 165 366 c 0
 120 366 105 345 105 307 c 2
 105 133 l 2
112 520 m 1
 198 624 l 1
 264 570 l 1
 158 476 l 1
 112 520 l 1
EndSplineSet
EndChar

StartChar: ograve
Encoding: 242 242 48
Width: 323
Flags: MW
HStem: -12 85<143 185 143 217.5> 366 86<142.5 187> 604 20G<154 154>
VStem: 20 85<133 307> 225 85<133 307>
LayerCount: 2
Fore
SplineSet
20 133 m 1
 20 307 l 2
 20 396 62 452 165 452 c 0
 268 452 310 396 310 307 c 2
 310 133 l 2
 310 44 269 -12 166 -12 c 0
 66 -12 14 43 20 133 c 1
105 133 m 2
 105 94 121 73 165 73 c 0
 205 73 225 89 225 133 c 2
 225 307 l 2
 225 345 209 366 165 366 c 0
 120 366 105 345 105 307 c 2
 105 133 l 2
154 624 m 1
 240 520 l 1
 194 476 l 1
 88 570 l 1
 154 624 l 1
EndSplineSet
EndChar

StartChar: one
Encoding: 49 49 49
Width: 240
Flags: MW
HStem: 0 86<20 72 20 72 157 207> 415 20G<97 157 157 157>
VStem: 20 137<0 435 86 435 299 392 392 392> 20 187<0 86 0 86> 72 85<86 318 318 318>
LayerCount: 2
Fore
SplineSet
20 0 m 1xd0
 20 86 l 1xd0
 72 86 l 1
 72 318 l 1xc8
 20 299 l 1
 20 392 l 1
 97 435 l 1
 157 435 l 1
 157 86 l 1xe0
 207 86 l 1
 207 0 l 1
 20 0 l 1xd0
EndSplineSet
EndChar

StartChar: p
Encoding: 112 112 50
Width: 303
Flags: MW
HStem: 0 21G<20 105 20 20> 146 80<105 143 143 162.5 105 172 105 143> 356 79<105 136 105 105>
VStem: 20 85<0 146 0 226 226 356> 201 81
LayerCount: 2
Fore
SplineSet
20 435 m 1
 159 435 l 2
 252 435 282 369 282 286 c 0
 282 212 246 157 172 146 c 1
 105 146 l 1
 105 0 l 1
 20 0 l 1
 20 435 l 1
136 356 m 2
 105 356 l 1
 105 226 l 1
 143 226 l 2
 182 226 200 245 201 290 c 1
 199 344 177 356 136 356 c 2
EndSplineSet
EndChar

StartChar: plus
Encoding: 43 43 51
Width: 367
Flags: MW
HStem: 69 21G<124 124 124 209> 170 85<20 124 20 124 209 315> 344 20G<124 209 209 209>
VStem: 124 85<69 170 69 170 255 364>
LayerCount: 2
Fore
SplineSet
124 69 m 1
 124 170 l 1
 20 170 l 1
 20 255 l 1
 124 255 l 1
 124 364 l 1
 209 364 l 1
 209 255 l 1
 315 255 l 1
 315 170 l 1
 209 170 l 1
 209 69 l 1
 124 69 l 1
EndSplineSet
EndChar

StartChar: q
Encoding: 113 113 52
Width: 402
Flags: MW
HStem: -50 85<284 354 284 354> -10 85<155 155> 359 86<142 188>
VStem: 20 85<135 300> 225 85<135 300>
LayerCount: 2
Fore
SplineSet
20 135 m 2x78
 20 300 l 2
 20 394 62 445 165 445 c 0
 268 445 310 394 310 300 c 2
 310 135 l 2
 310 99 305 62 284 35 c 1
 354 35 l 1
 354 -50 l 1
 155 -50 l 1xb8
 155 -10 l 1
 109 -9 73 4 52 27 c 0
 25 55 20 96 20 135 c 2x78
105 300 m 2
 105 135 l 2
 105 104 127 75 165 75 c 0x78
 211 75 225 106 225 135 c 2
 225 300 l 2
 225 329 211 359 165 359 c 0
 119 359 105 329 105 300 c 2
EndSplineSet
Substitution2: "'calt' Contextual Alternates in Latin lookup 0 subtable" q.alt
EndChar

StartChar: r
Encoding: 114 114 53
Width: 332
Flags: MW
HStem: 0 226<20 143 20 143 105 214 105 301> 356 79<105 136 105 105>
VStem: 20 85<0 146 0 226 226 356> 203 79<267.5 317>
LayerCount: 2
Fore
SplineSet
149 146 m 1
 105 146 l 1
 105 0 l 1
 20 0 l 1
 20 435 l 1
 159 435 l 1
 263 428 282 353 282 286 c 0
 282 230 272 190 229 164 c 1
 301 0 l 1
 214 0 l 1
 149 146 l 1
136 356 m 2
 105 356 l 1
 105 226 l 1
 143 226 l 2
 182 226 203 245 203 290 c 0
 203 344 177 356 136 356 c 2
EndSplineSet
Substitution2: "'calt' Contextual Alternates in Latin lookup 0 subtable" r.alt
EndChar

StartChar: s
Encoding: 115 115 54
Width: 333
Flags: MW
HStem: -11 80<149.5 193 149.5 205.5> -11 141<24 205.5> 305 141<117.5 299 117.5 211> 371 75
VStem: 20 85<307 326 307 353> 218 85<118 142>
LayerCount: 2
Fore
SplineSet
208 248 m 0x9c
 269 232 303 196 303 122 c 0
 303 42 249 -11 162 -11 c 0
 88 -11 24 24 24 130 c 1
 112 130 l 1x6c
 113 92 131 69 168 69 c 0
 218 69 218 116 218 120 c 0
 218 164 189 166 119 188 c 0
 53 209 20 254 20 313 c 0
 20 393 74 446 161 446 c 0
 238 446 299 411 299 305 c 1
 211 305 l 1xac
 211 343 192 370 155 371 c 1
 109 369 105 328 105 324 c 0
 105 290 107 275 208 248 c 0x9c
EndSplineSet
Substitution2: "'calt' Contextual Alternates in Latin lookup 0 subtable" s.alt
EndChar

StartChar: D
Encoding: 68 68 55
Width: 359
Flags: MW
HStem: 0 81<108 149 149 152> 613 82<108 149 108 108>
VStem: 20 88<81 613 81 695 81 695> 215 88<141 145 145 550>
LayerCount: 2
Fore
SplineSet
20 0 m 1
 20 695 l 1
 152 695 l 2
 222 695 244 686 271 658 c 0
 298 630 303 579 303 550 c 2
 303 145 l 2
 303 116 298 65 271 37 c 0
 244 9 222 0 152 0 c 2
 20 0 l 1
149 613 m 2
 108 613 l 1
 108 81 l 1
 149 81 l 2
 182 81 190 81 203 94 c 0
 215 106 215 141 215 141 c 1
 215 553 l 1
 215 553 215 584 206 596 c 0
 195 610 182 613 149 613 c 2
EndSplineSet
EndChar

StartChar: t
Encoding: 116 116 56
Width: 335
Flags: MW
HStem: 0 21G<119 204 119 119> 350 85<20 119 20 304 204 304 204 204>
VStem: 119 85<0 350 0 350>
LayerCount: 2
Fore
SplineSet
304 350 m 1
 204 350 l 1
 204 0 l 1
 119 0 l 1
 119 350 l 1
 20 350 l 1
 20 435 l 1
 304 435 l 1
 304 350 l 1
EndSplineSet
EndChar

StartChar: u
Encoding: 117 117 57
Width: 363
Flags: MW
HStem: 0 85<115.5 228 171 228 171 313> 415 20G<20 105 105 105 228 313 313 313>
VStem: 20 85<145 435> 228 85<85 435 0 435>
LayerCount: 2
Fore
SplineSet
20 145 m 2
 20 435 l 1
 105 435 l 1
 105 145 l 2
 105 106 120 85 171 85 c 2
 228 85 l 1
 228 435 l 1
 313 435 l 1
 313 0 l 1
 171 0 l 2
 60 0 20 45 20 145 c 2
EndSplineSet
EndChar

StartChar: uacute
Encoding: 250 250 58
Width: 388
Flags: MW
HStem: 0 85<115.5 228 171 228 171 313> 415 20G<20 105 105 105 228 313 313 313> 604 20G<204 204>
VStem: 20 85<145 435> 228 85<85 435 0 435>
LayerCount: 2
Fore
SplineSet
20 145 m 2
 20 435 l 1
 105 435 l 1
 105 145 l 2
 105 106 120 85 171 85 c 2
 228 85 l 1
 228 435 l 1
 313 435 l 1
 313 0 l 1
 171 0 l 2
 60 0 20 45 20 145 c 2
118 520 m 1
 204 624 l 1
 270 570 l 1
 164 476 l 1
 118 520 l 1
EndSplineSet
EndChar

StartChar: v
Encoding: 118 118 59
Width: 361
Flags: MW
HStem: 0 21G<89 245 89 89> 415 20G<20 105 105 105 229 314 314 314>
LayerCount: 2
Fore
SplineSet
314 435 m 1
 245 0 l 1
 89 0 l 1
 20 435 l 1
 105 435 l 1
 167 44 l 1
 229 435 l 1
 314 435 l 1
EndSplineSet
EndChar

StartChar: w
Encoding: 119 119 60
Width: 540
Flags: MW
HStem: 0 21G<89 228 89 89 282 421 282 282> 415 20G<20 108 108 108 402 490 490 490>
LayerCount: 2
Fore
SplineSet
282 0 m 1
 255 117 l 1
 228 0 l 1
 89 0 l 1
 20 435 l 1
 108 435 l 1
 163 87 l 1
 213 300 l 1
 299 300 l 1
 347 87 l 1
 402 435 l 1
 490 435 l 1
 421 0 l 1
 282 0 l 1
EndSplineSet
EndChar

StartChar: x
Encoding: 120 120 61
Width: 350
Flags: MW
HStem: 0 21G<20 115 20 20 222 317 222 222> 415 20G<20 115 115 115 222 317 317 317>
LayerCount: 2
Fore
SplineSet
317 435 m 1
 223 217 l 1
 317 0 l 1
 222 0 l 1
 168 107 l 1
 115 0 l 1
 20 0 l 1
 114 217 l 1
 20 435 l 1
 115 435 l 1
 168 327 l 1
 222 435 l 1
 317 435 l 1
EndSplineSet
EndChar

StartChar: y
Encoding: 121 121 62
Width: 337
Flags: MW
HStem: 0 21G<124 209 124 124> 415 20G<20 109 109 109 224 313 313 313>
VStem: 124 85<0 128 0 128>
LayerCount: 2
Fore
SplineSet
313 435 m 1
 209 128 l 1
 209 0 l 1
 124 0 l 1
 124 128 l 1
 20 435 l 1
 109 435 l 1
 166 258 l 1
 224 435 l 1
 313 435 l 1
EndSplineSet
EndChar

StartChar: z
Encoding: 122 122 63
Width: 318
Flags: MW
HStem: 0 85<124 263 20 20> 350 85<40 181 40 283 40 283>
VStem: 20 243<0 85 0 85> 40 243<350 435 350 435>
LayerCount: 2
Fore
SplineSet
40 435 m 1xd0
 283 435 l 1
 283 350 l 1xd0
 124 85 l 1
 263 85 l 1
 263 0 l 1
 20 0 l 1
 20 85 l 1xe0
 181 350 l 1
 40 350 l 1
 40 435 l 1xd0
EndSplineSet
EndChar

StartChar: ydieresis
Encoding: 255 255 64
Width: 324
Flags: MW
HStem: 0 21G<124 209 124 124> 415 20G<20 109 109 109 224 313 313 313> 484 75<63 138 73 138 73 138 183 248 73 183>
VStem: 124 85<0 128 0 128>
LayerCount: 2
Fore
SplineSet
313 435 m 1
 209 128 l 1
 209 0 l 1
 124 0 l 1
 124 128 l 1
 20 435 l 1
 109 435 l 1
 166 258 l 1
 224 435 l 1
 313 435 l 1
63 484 m 1
 73 559 l 1
 138 559 l 1
 138 484 l 1
 63 484 l 1
183 484 m 1
 183 559 l 1
 248 559 l 1
 258 484 l 1
 183 484 l 1
EndSplineSet
EndChar

StartChar: period
Encoding: 46 46 65
Width: 163
Flags: MW
HStem: -8 100<73 101>
VStem: 37 100<28 56>
LayerCount: 2
Fore
SplineSet
37 42 m 0
 37 70 59 92 87 92 c 0
 115 92 137 70 137 42 c 0
 137 14 115 -8 87 -8 c 0
 59 -8 37 14 37 42 c 0
EndSplineSet
EndChar

StartChar: colon
Encoding: 58 58 66
Width: 148
Flags: MW
HStem: 0 90<30 120 30 120> 180 90<30 120 30 120>
VStem: 30 90<0 90 0 90 180 270>
LayerCount: 2
Fore
SplineSet
30 0 m 1
 30 90 l 1
 120 90 l 1
 120 0 l 1
 30 0 l 1
30 180 m 1
 30 270 l 1
 120 270 l 1
 120 180 l 1
 30 180 l 1
EndSplineSet
EndChar

StartChar: semicolon
Encoding: 59 59 67
Width: 166
Flags: MW
HStem: -64 145<33 128 33 98> 179 90<33 123 33 123>
VStem: 33 90<179 269 179 269>
LayerCount: 2
Fore
SplineSet
33 179 m 1
 33 269 l 1
 123 269 l 1
 123 179 l 1
 33 179 l 1
33 -64 m 1
 33 81 l 1
 128 81 l 1
 98 -64 l 1
 33 -64 l 1
EndSplineSet
EndChar

StartChar: comma
Encoding: 44 44 68
Width: 135
Flags: MW
HStem: -61 145<15 110 15 80>
LayerCount: 2
Fore
SplineSet
15 -61 m 1
 15 84 l 1
 110 84 l 1
 80 -61 l 1
 15 -61 l 1
EndSplineSet
EndChar

StartChar: quotedblright
Encoding: 8221 8221 69
Width: 287
Flags: MW
HStem: 555 145<23 118 23 88 23 163 163 228>
LayerCount: 2
Fore
SplineSet
163 555 m 1
 163 700 l 1
 258 700 l 1
 228 555 l 1
 163 555 l 1
23 555 m 1
 23 700 l 1
 118 700 l 1
 88 555 l 1
 23 555 l 1
EndSplineSet
EndChar

StartChar: quotedblleft
Encoding: 8220 8220 70
Width: 298
Flags: MW
HStem: 555 145<53 118 53 53 193 193 193 258>
LayerCount: 2
Fore
SplineSet
118 700 m 1
 118 555 l 1
 53 555 l 1
 23 700 l 1
 118 700 l 1
258 700 m 1
 258 555 l 1
 193 555 l 1
 163 700 l 1
 258 700 l 1
EndSplineSet
EndChar

StartChar: agrave
Encoding: 224 224 71
Width: 343
Flags: MW
HStem: 0 21G<20 105 20 20 229 314 229 229> 84 85<132 202 132 215 118 202> 415 20G<89 245 245 245> 604 20G<152 152>
LayerCount: 2
Fore
SplineSet
245 435 m 1
 314 0 l 1
 229 0 l 1
 215 84 l 1
 118 84 l 1
 105 0 l 1
 20 0 l 1
 89 435 l 1
 245 435 l 1
167 391 m 1
 132 169 l 1
 202 169 l 1
 167 391 l 1
152 624 m 1
 238 520 l 1
 192 476 l 1
 86 570 l 1
 152 624 l 1
EndSplineSet
EndChar

StartChar: igrave
Encoding: 236 236 72
Width: 210
Flags: MW
HStem: 0 85<20 52 137 169 20 52> 350 85<20 52 20 169 137 137 137 169> 604 20G<63 63>
VStem: 20 149<0 85 0 85 350 435> 52 85<85 350 85 350>
LayerCount: 2
Fore
SplineSet
169 0 m 1xf0
 20 0 l 1
 20 85 l 1xf0
 52 85 l 1
 52 350 l 1xe8
 20 350 l 1
 20 435 l 1
 169 435 l 1
 169 350 l 1xf0
 137 350 l 1
 137 85 l 1xe8
 169 85 l 1
 169 0 l 1xf0
63 624 m 1
 149 520 l 1
 103 476 l 1
 -3 570 l 1
 63 624 l 1
EndSplineSet
EndChar

StartChar: ugrave
Encoding: 249 249 73
Width: 388
Flags: MW
HStem: 0 85<115.5 228 171 228 171 313> 415 20G<20 105 105 105 228 313 313 313> 604 20G<154 154>
VStem: 20 85<145 435> 228 85<85 435 0 435>
LayerCount: 2
Fore
SplineSet
20 145 m 2
 20 435 l 1
 105 435 l 1
 105 145 l 2
 105 106 120 85 171 85 c 2
 228 85 l 1
 228 435 l 1
 313 435 l 1
 313 0 l 1
 171 0 l 2
 60 0 20 45 20 145 c 2
154 624 m 1
 240 520 l 1
 194 476 l 1
 88 570 l 1
 154 624 l 1
EndSplineSet
EndChar

StartChar: Ugrave
Encoding: 217 217 74
Width: 354
Flags: MW
HStem: 0 89<115 215 176 215 176 303> 869 20G<138 138>
VStem: 20 88<145 149 149 698> 215 88<89 698 0 698>
LayerCount: 2
Fore
SplineSet
20 145 m 1
 20 698 l 1
 108 698 l 1
 108 149 l 2
 108 106 123 89 176 89 c 2
 215 89 l 1
 215 698 l 1
 303 698 l 1
 303 0 l 1
 171 0 l 2
 59 0 21 45 20 145 c 1
138 889 m 1
 224 785 l 1
 178 741 l 1
 72 835 l 1
 138 889 l 1
EndSplineSet
EndChar

StartChar: yacute
Encoding: 253 253 75
Width: 324
Flags: MW
HStem: 0 21G<124 209 124 124> 415 20G<20 109 109 109 224 313 313 313> 604 20G<192 192>
VStem: 124 85<0 128 0 128>
LayerCount: 2
Fore
SplineSet
313 435 m 1
 209 128 l 1
 209 0 l 1
 124 0 l 1
 124 128 l 1
 20 435 l 1
 109 435 l 1
 166 258 l 1
 224 435 l 1
 313 435 l 1
106 520 m 1
 192 624 l 1
 258 570 l 1
 152 476 l 1
 106 520 l 1
EndSplineSet
EndChar

StartChar: ae
Encoding: 230 230 76
Width: 490
Flags: MW
HStem: 0 85<315 429 315 439> 84 85<132 202 132 215 118 202> 211 85<295 402 275 412 295 295> 350 85<265 381 89 391 265 265>
LayerCount: 2
Fore
SplineSet
439 0 m 1xb0
 229 0 l 1xb0
 215 84 l 1
 118 84 l 1x70
 105 0 l 1
 20 0 l 1
 89 435 l 1
 381 435 l 1
 391 350 l 1
 265 350 l 1
 275 296 l 1
 402 296 l 1
 412 211 l 1
 295 211 l 1
 315 85 l 1
 429 85 l 1
 439 0 l 1xb0
167 391 m 1
 132 169 l 1
 202 169 l 1x70
 167 391 l 1
EndSplineSet
EndChar

StartChar: oe
Encoding: 339 339 77
Width: 505
Flags: MW
HStem: -12 85<143 180> 0 85<311 441 311 441 237 441> 211 85<311 438 311 438> 350 85<311 441 311 311> 366 69<142.5 441> 366 86<142.5 181.5 113.5 187>
VStem: 20 85<133 307> 225 86<133 211 296 307 307 326> 225 216<0 307>
LayerCount: 2
Fore
SplineSet
441 0 m 1x7280
 237 0 l 1x6a80
 218 -8 194 -12 166 -12 c 0
 66 -12 14 43 20 133 c 1
 20 307 l 2
 20 396 62 452 165 452 c 0xa7
 198 452 225 446 246 435 c 1
 441 435 l 1
 441 350 l 1xb280
 311 350 l 1
 311 296 l 1
 438 296 l 1
 438 211 l 1
 311 211 l 1
 311 85 l 1x73
 441 85 l 1
 441 0 l 1x7280
105 133 m 2
 105 94 121 73 165 73 c 0xb3
 205 73 225 89 225 133 c 2
 225 307 l 2
 225 345 209 366 165 366 c 0
 120 366 105 345 105 307 c 2
 105 133 l 2
EndSplineSet
EndChar

StartChar: backslash
Encoding: 92 92 78
Width: 347
Flags: MW
HStem: 0 21G<240 240 240 330> 680 20G<14 105 105 105>
LayerCount: 2
Fore
SplineSet
240 0 m 1
 14 700 l 1
 105 700 l 1
 330 0 l 1
 240 0 l 1
EndSplineSet
EndChar

StartChar: slash
Encoding: 47 47 79
Width: 331
Flags: MW
HStem: 0 21G<4 94 4 4> 680 20G<229 320 320 320>
LayerCount: 2
Fore
SplineSet
320 700 m 1
 94 0 l 1
 4 0 l 1
 229 700 l 1
 320 700 l 1
EndSplineSet
EndChar

StartChar: acircumflex
Encoding: 226 226 80
Width: 343
Flags: MW
HStem: 0 21G<20 105 20 20 229 314 229 229> 84 85<132 202 132 215 118 202> 415 20G<89 245 245 245> 584 20G<132 132 202 202>
LayerCount: 2
Fore
SplineSet
245 435 m 1
 314 0 l 1
 229 0 l 1
 215 84 l 1
 118 84 l 1
 105 0 l 1
 20 0 l 1
 89 435 l 1
 245 435 l 1
167 391 m 1
 132 169 l 1
 202 169 l 1
 167 391 l 1
36 514 m 1
 132 604 l 1
 167 569 l 1
 202 604 l 1
 298 514 l 1
 252 470 l 1
 167 530 l 1
 82 470 l 1
 36 514 l 1
EndSplineSet
EndChar

StartChar: circumflex
Encoding: 710 710 81
Width: 476
Flags: MW
HStem: 470 21G<150 150 320 320> 584 20G<200 200 270 270>
LayerCount: 2
Fore
SplineSet
104 514 m 1
 200 604 l 1
 235 569 l 1
 270 604 l 1
 366 514 l 1
 320 470 l 1
 235 530 l 1
 150 470 l 1
 104 514 l 1
EndSplineSet
EndChar

StartChar: icircumflex
Encoding: 238 238 82
Width: 210
Flags: MW
HStem: 0 85<20 52 137 169 20 52> 350 85<20 52 20 169 137 137 137 169> 584 20G<61 61 131 131>
VStem: 20 149<0 85 0 85 350 435> 52 85<85 350 85 350>
LayerCount: 2
Fore
SplineSet
169 0 m 1xf0
 20 0 l 1
 20 85 l 1xf0
 52 85 l 1
 52 350 l 1xe8
 20 350 l 1
 20 435 l 1
 169 435 l 1
 169 350 l 1xf0
 137 350 l 1
 137 85 l 1xe8
 169 85 l 1
 169 0 l 1xf0
-35 514 m 1
 61 604 l 1
 96 569 l 1
 131 604 l 1
 227 514 l 1
 181 470 l 1
 96 530 l 1
 11 470 l 1
 -35 514 l 1
EndSplineSet
EndChar

StartChar: ocircumflex
Encoding: 244 244 83
Width: 375
Flags: MW
HStem: -12 85<143 185 143 217.5> 366 86<142.5 187> 584 20G<131 131 201 201>
VStem: 20 85<133 307> 225 85<133 307>
LayerCount: 2
Fore
SplineSet
20 133 m 1
 20 307 l 2
 20 396 62 452 165 452 c 0
 268 452 310 396 310 307 c 2
 310 133 l 2
 310 44 269 -12 166 -12 c 0
 66 -12 14 43 20 133 c 1
105 133 m 2
 105 94 121 73 165 73 c 0
 205 73 225 89 225 133 c 2
 225 307 l 2
 225 345 209 366 165 366 c 0
 120 366 105 345 105 307 c 2
 105 133 l 2
35 514 m 1
 131 604 l 1
 166 569 l 1
 201 604 l 1
 297 514 l 1
 251 470 l 1
 166 530 l 1
 81 470 l 1
 35 514 l 1
EndSplineSet
EndChar

StartChar: ucircumflex
Encoding: 251 251 84
Width: 388
Flags: MW
HStem: 0 85<115.5 228 171 228 171 313> 415 20G<20 105 105 105 228 313 313 313> 584 20G<132 132 202 202>
VStem: 20 85<145 435> 228 85<85 435 0 435>
LayerCount: 2
Fore
SplineSet
20 145 m 2
 20 435 l 1
 105 435 l 1
 105 145 l 2
 105 106 120 85 171 85 c 2
 228 85 l 1
 228 435 l 1
 313 435 l 1
 313 0 l 1
 171 0 l 2
 60 0 20 45 20 145 c 2
36 514 m 1
 132 604 l 1
 167 569 l 1
 202 604 l 1
 298 514 l 1
 252 470 l 1
 167 530 l 1
 82 470 l 1
 36 514 l 1
EndSplineSet
EndChar

StartChar: ecircumflex
Encoding: 234 234 85
Width: 272
Flags: MW
HStem: 0 85<105 235 105 235> 211 85<105 232 105 232> 350 85<105 235 105 105> 584 20G<93 93 163 163>
VStem: 20 85<85 211 296 350> 20 215<0 85 350 435>
LayerCount: 2
Fore
SplineSet
235 0 m 1xf4
 20 0 l 1
 20 435 l 1
 235 435 l 1
 235 350 l 1xf4
 105 350 l 1
 105 296 l 1
 232 296 l 1
 232 211 l 1
 105 211 l 1
 105 85 l 1xf8
 235 85 l 1
 235 0 l 1xf4
-3 514 m 1
 93 604 l 1
 128 569 l 1
 163 604 l 1
 259 514 l 1
 213 470 l 1
 128 530 l 1
 43 470 l 1
 -3 514 l 1
EndSplineSet
EndChar

StartChar: dieresis
Encoding: 168 168 86
Width: 461
Flags: MW
HStem: 484 75<154 229 164 229 164 229 274 339 164 274>
VStem: 229 45<484 559 484 559>
LayerCount: 2
Fore
SplineSet
154 484 m 1
 164 559 l 1
 229 559 l 1
 229 484 l 1
 154 484 l 1
274 484 m 1
 274 559 l 1
 339 559 l 1
 349 484 l 1
 274 484 l 1
EndSplineSet
EndChar

StartChar: odieresis
Encoding: 246 246 87
Width: 375
Flags: MW
HStem: -12 85<143 185 143 217.5> 366 86<142.5 187> 484 75<68 143 78 143 78 143 188 253 78 188>
VStem: 20 85<133 307> 20 123 225 85<133 307>
LayerCount: 2
Fore
SplineSet
20 133 m 1xf4
 20 307 l 2
 20 396 62 452 165 452 c 0
 268 452 310 396 310 307 c 2
 310 133 l 2
 310 44 269 -12 166 -12 c 0
 66 -12 14 43 20 133 c 1xf4
105 133 m 2
 105 94 121 73 165 73 c 0
 205 73 225 89 225 133 c 2
 225 307 l 2
 225 345 209 366 165 366 c 0
 120 366 105 345 105 307 c 2
 105 133 l 2
68 484 m 1
 78 559 l 1
 143 559 l 1
 143 484 l 1xec
 68 484 l 1
188 484 m 1
 188 559 l 1
 253 559 l 1
 263 484 l 1
 188 484 l 1
EndSplineSet
EndChar

StartChar: adieresis
Encoding: 228 228 88
Width: 343
Flags: MW
HStem: 0 21G<20 105 20 20 229 314 229 229> 84 85<132 202 132 215 118 202> 415 20G<89 245 245 245> 484 75<69 144 79 144 79 144 189 254 79 189>
VStem: 144 45<484 559 484 559>
LayerCount: 2
Fore
SplineSet
245 435 m 1
 314 0 l 1
 229 0 l 1
 215 84 l 1
 118 84 l 1
 105 0 l 1
 20 0 l 1
 89 435 l 1
 245 435 l 1
167 391 m 1
 132 169 l 1
 202 169 l 1
 167 391 l 1
69 484 m 1
 79 559 l 1
 144 559 l 1
 144 484 l 1
 69 484 l 1
189 484 m 1
 189 559 l 1
 254 559 l 1
 264 484 l 1
 189 484 l 1
EndSplineSet
EndChar

StartChar: edieresis
Encoding: 235 235 89
Width: 272
Flags: MW
HStem: 0 85<105 235 105 235> 211 85<105 232 105 232> 350 85<105 235 105 105> 484 75<27 102 37 102 37 102 147 212 37 147>
VStem: 20 85<85 211 296 350> 20 215<0 85 350 435>
LayerCount: 2
Fore
SplineSet
235 0 m 1xf4
 20 0 l 1
 20 435 l 1
 235 435 l 1
 235 350 l 1xf4
 105 350 l 1
 105 296 l 1
 232 296 l 1
 232 211 l 1
 105 211 l 1
 105 85 l 1xf8
 235 85 l 1
 235 0 l 1xf4
27 484 m 1
 37 559 l 1
 102 559 l 1
 102 484 l 1
 27 484 l 1
147 484 m 1
 147 559 l 1
 212 559 l 1
 222 484 l 1
 147 484 l 1
EndSplineSet
EndChar

StartChar: idieresis
Encoding: 239 239 90
Width: 210
Flags: MW
HStem: 0 85<20 52 137 169 20 52> 350 85<20 52 20 169 137 137 137 169> 484 75<-2 73 8 73 8 73 118 183 8 118>
VStem: 20 149<0 85 0 85 350 435> 52 85<85 350 85 350>
LayerCount: 2
Fore
SplineSet
169 0 m 1xf0
 20 0 l 1
 20 85 l 1xf0
 52 85 l 1
 52 350 l 1xe8
 20 350 l 1
 20 435 l 1
 169 435 l 1
 169 350 l 1xf0
 137 350 l 1
 137 85 l 1xe8
 169 85 l 1
 169 0 l 1xf0
-2 484 m 1
 8 559 l 1
 73 559 l 1
 73 484 l 1
 -2 484 l 1
118 484 m 1
 118 559 l 1
 183 559 l 1
 193 484 l 1
 118 484 l 1
EndSplineSet
EndChar

StartChar: udieresis
Encoding: 252 252 91
Width: 388
Flags: MW
HStem: 0 85<115.5 228 171 228 171 313> 415 20G<20 105 105 105 228 313 313 313> 484 75<71 146 81 146 81 146 191 256 81 191>
VStem: 20 85<145 435> 228 85<85 435 0 435>
LayerCount: 2
Fore
SplineSet
20 145 m 2
 20 435 l 1
 105 435 l 1
 105 145 l 2
 105 106 120 85 171 85 c 2
 228 85 l 1
 228 435 l 1
 313 435 l 1
 313 0 l 1
 171 0 l 2
 60 0 20 45 20 145 c 2
71 484 m 1
 81 559 l 1
 146 559 l 1
 146 484 l 1
 71 484 l 1
191 484 m 1
 191 559 l 1
 256 559 l 1
 266 484 l 1
 191 484 l 1
EndSplineSet
EndChar

StartChar: question
Encoding: 63 63 92
Width: 348
Flags: MW
HStem: 0 86<85 170 85 170> 170 215<85 105 105 165.5 85 170 85 105> 300 85<85 170> 539 164<7 245 7 245> 614 89<141 198.5>
VStem: 7 88<539 608.5> 85 85<0 86 0 86 170 300> 243 85<432.5 535>
LayerCount: 2
Fore
SplineSet
85 385 m 1xd3
 105 385 l 2
 226 385 243 389 243 476 c 0
 243 594 230 614 167 614 c 0xcb
 115 614 97 602 95 539 c 1
 7 539 l 1xd5
 7 678 58 703 177 703 c 0
 313 703 328 628 328 476 c 0
 328 342 304 302 170 300 c 1xb3
 170 170 l 1
 85 170 l 1
 85 385 l 1xd3
85 0 m 1
 85 86 l 1
 170 86 l 1
 170 0 l 1
 85 0 l 1
EndSplineSet
Substitution2: "'calt' Contextual Alternates in Latin lookup 0 subtable" question.alt
EndChar

StartChar: cedilla
Encoding: 184 184 93
Width: 252
Flags: MW
HStem: -107 21G<109 137 109 109> -101 20G<109 137 137 142> -20 20G<109 135 135 135> -12 21G<135 148>
LayerCount: 2
Fore
SplineSet
135 0 m 1x60
 135 -12 l 1
 161 -12 165 -15 173 -23 c 0
 181 -32 183 -44 183 -56 c 2
 183 -63 l 2
 183 -75 181 -87 173 -96 c 0
 165 -104 158 -107 137 -107 c 2
 109 -107 l 1x90
 109 -81 l 1
 137 -81 l 2
 147 -81 151 -81 154 -76 c 0
 157 -72 157 -63 157 -63 c 1
 157 -56 l 1
 157 -56 157 -47 154 -43 c 0
 151 -38 145 -38 135 -38 c 2
 109 -38 l 1
 109 0 l 1
 135 0 l 1x60
EndSplineSet
EndChar

StartChar: ccedilla
Encoding: 231 231 94
Width: 288
Flags: MW
HStem: -107 21G<171 199 171 171> -101 20G<171 199 199 204> -12 21G<197 210> 0 85<113.5 263 170 171 197 263 197 197> 350 85<144 263 170 263>
VStem: 19 85<145 290 145 290> 19 244<0 290 0 290>
LayerCount: 2
Fore
SplineSet
170 435 m 2x5c
 263 435 l 1
 263 350 l 1x5a
 170 350 l 2
 118 350 103 332 104 290 c 1
 104 145 l 1x5c
 103 103 118 85 170 85 c 2
 263 85 l 1
 263 0 l 1
 197 0 l 1x5a
 197 -12 l 1
 223 -12 227 -15 235 -23 c 0
 243 -32 245 -44 245 -56 c 2
 245 -63 l 2
 245 -75 243 -87 235 -96 c 0
 227 -104 220 -107 199 -107 c 2
 171 -107 l 1xac
 171 -81 l 1
 199 -81 l 2
 209 -81 213 -81 216 -76 c 0
 219 -72 219 -63 219 -63 c 1
 219 -56 l 1
 219 -56 219 -47 216 -43 c 0
 213 -38 207 -38 197 -38 c 2
 171 -38 l 1
 171 0 l 1
 170 0 l 2
 57 0 20 45 19 145 c 1
 19 290 l 1
 20 390 57 435 170 435 c 2x5c
EndSplineSet
EndChar

StartChar: exclam
Encoding: 33 33 95
Width: 160
Flags: MW
HStem: -1 90<31 121 31 121> 680 20G<26 126 126 126>
VStem: 26 100<301 700 301 700>
LayerCount: 2
Fore
SplineSet
46 150 m 1
 26 301 l 1
 26 700 l 1
 126 700 l 1
 126 301 l 1
 106 150 l 1
 46 150 l 1
31 -1 m 1
 31 89 l 1
 121 89 l 1
 121 -1 l 1
 31 -1 l 1
EndSplineSet
EndChar

StartChar: endash
Encoding: 8211 8211 96
Width: 833
Flags: MW
HStem: 178 85<79 454 79 454>
LayerCount: 2
Fore
SplineSet
79 263 m 1
 454 263 l 1
 454 178 l 1
 79 178 l 1
 79 263 l 1
EndSplineSet
EndChar

StartChar: emdash
Encoding: 8212 8212 97
Width: 833
Flags: MW
HStem: 178 85<79 614 79 614>
LayerCount: 2
Fore
SplineSet
79 263 m 1
 614 263 l 1
 614 178 l 1
 79 178 l 1
 79 263 l 1
EndSplineSet
EndChar

StartChar: underscore
Encoding: 95 95 98
Width: 482
Flags: MW
HStem: -102 85<19 464 19 464>
LayerCount: 2
Fore
SplineSet
19 -17 m 1
 464 -17 l 1
 464 -102 l 1
 19 -102 l 1
 19 -17 l 1
EndSplineSet
EndChar

StartChar: at
Encoding: 64 64 99
Width: 737
Flags: MW
HStem: -186 83<287.5 388.5> 0 84<308 405 486 550 294 405> 402 84<287.5 426.5>
VStem: 71 83<80.5 219.5 80.5 242.5> 559 84<138.5 219.5>
LayerCount: 2
Fore
SplineSet
608 0 m 1
 294 0 l 1
 291 -17 l 1
 206 -17 l 1
 219 43 l 1
 227 81 l 1
 279 335 l 1
 435 335 l 1
 486 84 l 1
 550 84 l 1
 556 105 559 127 559 150 c 0
 559 289 496 402 357 402 c 0
 218 402 154 289 154 150 c 0
 154 11 218 -103 357 -103 c 0
 423 -103 484 -76 529 -34 c 1
 529 -138 l 1
 478 -168 420 -186 357 -186 c 0
 172 -186 71 -35 71 150 c 0
 71 335 172 486 357 486 c 0
 542 486 643 335 643 150 c 0
 643 96 631 45 608 0 c 1
308 84 m 1
 405 84 l 1
 357 291 l 1
 308 84 l 1
EndSplineSet
EndChar

StartChar: ampersand
Encoding: 38 38 100
Width: 563
Flags: MW
HStem: -6 91<186.5 253 186.5 266.5> 0 21G<431 520 431 431> 631 74<211.5 252>
VStem: 29 90<174 253.5 173.5 260> 107 83<564 579> 276 75<529 561.5>
LayerCount: 2
Fore
SplineSet
520 0 m 1x6c
 431 0 l 1x74
 364 101 l 1
 364 101 323 -6 210 -6 c 0
 43 -6 29 134 29 214 c 0xb4
 29 306 63 382 147 433 c 1
 147 433 107 497 107 549 c 0
 107 609 107 705 226 705 c 0
 335 705 351 630 351 553 c 0
 351 497 336 446 265 401 c 1
 333 287 l 1
 347 370 l 1
 415 370 l 1
 384 212 l 1
 520 0 l 1x6c
217 85 m 0xb4
 289 85 306 186 306 186 c 1
 191 369 l 1
 141 325 119 288 119 219 c 0
 119 128 156 85 217 85 c 0xb4
190 564 m 1xac
 192 498 222 470 222 470 c 1
 258 480 276 508 276 550 c 0
 276 573 274 631 230 631 c 0
 193 631 190 600 190 564 c 1xac
EndSplineSet
EndChar

StartChar: guillemotleft
Encoding: 171 171 101
Width: 563
Flags: MW
HStem: 20 21G<191 286 191 191 371 371 371 466> 351 20G<191 286 286 286 371 466 466 466>
LayerCount: 2
Fore
SplineSet
286 371 m 1
 155 200 l 1
 286 20 l 1
 191 20 l 1
 60 200 l 1
 191 371 l 1
 286 371 l 1
240 200 m 1
 371 371 l 1
 466 371 l 1
 335 200 l 1
 466 20 l 1
 371 20 l 1
 240 200 l 1
EndSplineSet
EndChar

StartChar: guillemotright
Encoding: 187 187 102
Width: 496
Flags: MW
HStem: 20 21G<60 60 60 155 240 335 240 240> 351 20G<60 155 155 155 240 335 335 335>
LayerCount: 2
Fore
SplineSet
60 20 m 1
 191 200 l 1
 60 371 l 1
 155 371 l 1
 286 200 l 1
 155 20 l 1
 60 20 l 1
240 20 m 1
 371 200 l 1
 240 371 l 1
 335 371 l 1
 466 200 l 1
 335 20 l 1
 240 20 l 1
EndSplineSet
EndChar

StartChar: guilsinglright
Encoding: 8250 8250 103
Width: 333
Flags: MW
HStem: 20 21G<60 60 60 155> 351 20G<60 155 155 155>
LayerCount: 2
Fore
SplineSet
60 20 m 1
 191 200 l 1
 60 371 l 1
 155 371 l 1
 286 200 l 1
 155 20 l 1
 60 20 l 1
EndSplineSet
EndChar

StartChar: guilsinglleft
Encoding: 8249 8249 104
Width: 364
Flags: MW
HStem: 20 21G<191 286 191 191> 351 20G<191 286 286 286>
LayerCount: 2
Fore
SplineSet
155 200 m 1
 286 20 l 1
 191 20 l 1
 60 200 l 1
 191 371 l 1
 286 371 l 1
 155 200 l 1
EndSplineSet
EndChar

StartChar: OE
Encoding: 338 338 105
Width: 491
Flags: MW
HStem: 0 91<318 461 318 461 228 461> 344 90<318 461 318 461> 610 90<318 461 318 318>
VStem: 28 90<147.5 150 150 550> 228 90<0 133 8 133 141 145 145 344 434 559 559 559> 228 233<0 8 8 8 344 434 694 700>
LayerCount: 2
Fore
SplineSet
228 0 m 1xf4
 228 8 l 1
 212 3 194 0 174 0 c 0
 123 0 83 13 60 37 c 0
 33 65 28 106 28 145 c 2
 28 555 l 2
 28 594 33 635 60 663 c 0
 83 687 123 700 173 700 c 0
 193 700 211 698 228 694 c 1
 228 700 l 1
 461 700 l 1
 461 610 l 1xf4
 318 610 l 1
 318 434 l 1xf8
 461 434 l 1
 461 344 l 1xf4
 318 344 l 1
 318 145 l 1
 318 133 l 1
 318 91 l 1xf8
 461 91 l 1
 461 0 l 1
 228 0 l 1xf4
127 107 m 0
 134 96 158 90 173 90 c 0
 188 90 211 96 219 107 c 0
 225 116 227 131 228 141 c 1
 228 559 l 1
 227 570 225 585 219 593 c 0
 210 604 188 609 173 609 c 0
 158 609 134 604 127 593 c 1
 118 581 118 555 118 550 c 2
 118 150 l 2
 118 145 118 121 127 107 c 0
EndSplineSet
EndChar

StartChar: two
Encoding: 50 50 106
Width: 356
Flags: MW
HStem: 0 85<112 308 112 308> 306 136<31 208.5 31 208.5> 357 85<148 186>
VStem: 20 92<85 87 87 136.5 85 161.5> 215 85<267 326>
LayerCount: 2
Fore
SplineSet
20 0 m 1xd8
 20 87 l 2
 20 236 215 217 215 317 c 0
 215 335 205 357 167 357 c 0xb8
 129 357 116 331 116 306 c 1
 31 306 l 1
 31 389 94 442 167 442 c 0
 250 442 300 401 300 320 c 0
 300 160 112 188 112 85 c 1
 308 85 l 1
 308 0 l 1
 20 0 l 1xd8
EndSplineSet
EndChar

StartChar: five
Encoding: 53 53 107
Width: 369
Flags: MW
HStem: -122 85<156 199 156 227.5> -122 145<20 227.5> 126 104<48 236> 147 83<168 204.5> 350 85<127 127 127 302>
VStem: 20 95<5 23 5 23> 48 79<221 350> 248 84<15 91.5>
LayerCount: 2
Fore
SplineSet
127 350 m 1xab
 127 221 l 1xab
 127 221 146 230 190 230 c 0
 282 230 332 187 332 67 c 0
 332 -81 275 -122 180 -122 c 0
 76 -122 20 -72 20 23 c 1
 115 23 l 1x6d
 115 -13 132 -37 180 -37 c 0
 218 -37 248 -26 248 56 c 0
 248 127 231 147 178 147 c 0x9d
 145 147 127 126 127 126 c 1
 48 126 l 1
 48 435 l 1
 302 435 l 1
 302 350 l 1
 127 350 l 1xab
EndSplineSet
EndChar

StartChar: three
Encoding: 51 51 108
Width: 385
Flags: MW
HStem: -126 85<153.5 198 153.5 225.5> -126 148<21 225.5> 150 75<122 169 122 173> 296 141<37 223 37 223> 352 85<163 191.5>
VStem: 21 90<-12 22> 122 194<150 342 225 342> 231 85<270 320> 246 90<14 77.5>
LayerCount: 2
Fore
SplineSet
122 150 m 1xb6
 122 225 l 1xb6
 216 225 231 245 231 295 c 0
 231 345 206 352 177 352 c 0xad
 149 352 123 332 123 296 c 1
 37 296 l 1
 37 381 103 437 177 437 c 0
 269 437 316 389 316 295 c 0xb5
 316 232 292 209 257 193 c 1
 286 184 336 159 336 59 c 0
 336 -72 275 -126 176 -126 c 0
 64 -126 21 -46 21 22 c 1
 111 22 l 1x7480
 113 -14 125 -41 182 -41 c 0
 214 -41 246 -19 246 47 c 0xb480
 246 108 224 150 122 150 c 1xb6
EndSplineSet
EndChar

StartChar: four
Encoding: 52 52 109
Width: 386
Flags: MW
HStem: -116 21G<210 293 210 210> 0 80<20 20 101 209 293 354> 415 20G<144 293 293 293>
VStem: 209 84<80 373 373 373>
LayerCount: 2
Fore
SplineSet
20 0 m 1
 20 80 l 1
 144 435 l 1
 293 435 l 1
 293 80 l 1
 354 80 l 1
 354 0 l 1
 293 0 l 1
 293 -116 l 1
 210 -116 l 1
 210 0 l 1
 20 0 l 1
101 80 m 1
 209 80 l 1
 209 373 l 1
 101 80 l 1
EndSplineSet
EndChar

StartChar: six
Encoding: 54 54 110
Width: 374
Flags: MW
HStem: -9 85<161.5 200 161.5 227.5> 249 85<171.5 201> 415 141<139.5 313 139.5 236> 476 80<155.5 189.5>
VStem: 20 85<166 196 313 371> 236 77<415 439.5> 236 94
LayerCount: 2
Fore
SplineSet
330 166 m 1xda
 330 61 275 -9 180 -9 c 0
 75 -9 20 61 20 166 c 2
 20 373 l 2
 20 520 113 556 166 556 c 0
 262 556 313 514 313 415 c 1
 236 415 l 1xec
 236 464 207 476 172 476 c 0
 139 476 105 455 105 371 c 2
 105 313 l 1
 120 327 161 334 182 334 c 0
 288 334 329 260 330 166 c 1xda
247 166 m 0
 247 226 221 249 181 249 c 0
 143 249 105 226 105 166 c 0
 105 99 143 76 180 76 c 0
 220 76 247 99 247 166 c 0
EndSplineSet
EndChar

StartChar: seven
Encoding: 55 55 111
Width: 353
Flags: MW
HStem: -115 21G<76 176 76 76> 350 85<20 229 20 313 20 313>
VStem: 76 100<-115 10.5>
LayerCount: 2
Fore
SplineSet
313 435 m 1
 313 350 l 1
 313 350 176 160 176 -115 c 1
 76 -115 l 1
 76 136 229 350 229 350 c 1
 20 350 l 1
 20 435 l 1
 313 435 l 1
EndSplineSet
EndChar

StartChar: eight
Encoding: 56 56 113
Width: 376
Flags: MW
HStem: -10 80<152 200.5 152 227> 263 79<157 200 157 205.5> 471 85<157 200>
VStem: 19 85<131.5 190 131.5 204.5> 40 85<384 427 384 453.5> 230 85<381.5 427> 249 66 249 85<131.5 190>
LayerCount: 2
Fore
SplineSet
266 305 m 1xec
 293 296 334 248 334 160 c 0
 334 37 277 -10 177 -10 c 0
 82 -10 19 37 19 160 c 0xf1
 19 249 60 295 85 305 c 1
 60 318 40 353 40 402 c 0
 40 505 92 556 177 556 c 0
 257 556 315 505 315 402 c 0
 315 344 292 318 266 305 c 1xec
125 402 m 0xec
 125 366 137 342 177 342 c 0
 223 342 230 361 230 402 c 0
 230 452 223 471 177 471 c 0
 137 471 125 452 125 402 c 0xec
104 160 m 0xf2
 104 103 127 70 177 70 c 0
 224 70 249 103 249 160 c 0
 249 220 234 263 177 263 c 0
 117 263 104 220 104 160 c 0xf2
EndSplineSet
EndChar

StartChar: nine
Encoding: 57 57 114
Width: 383
Flags: MW
HStem: -121 82<154.5 188.5 154.5 233.5> -121 141<19 233.5> 101 85<153 178.5> 359 85<154 192.5>
VStem: 20 83<269 302.5> 245 85<64 122 122 122>
LayerCount: 2
Fore
SplineSet
20 269 m 1xbc
 20 384 75 444 170 444 c 0
 275 444 330 394 330 269 c 2
 330 62 l 2
 330 -43 292 -121 175 -121 c 0
 81 -121 19 -78 19 20 c 1
 103 20 l 1x7c
 103 -19 137 -39 172 -39 c 0
 205 -39 245 -30 245 64 c 2
 245 122 l 1
 230 108 189 101 168 101 c 0
 62 101 21 175 20 269 c 1xbc
103 269 m 0
 103 209 133 186 173 186 c 0
 211 186 247 209 247 269 c 0
 247 336 211 359 174 359 c 0
 134 359 103 336 103 269 c 0
EndSplineSet
EndChar

StartChar: fi
Encoding: 64257 64257 116
Width: 435
Flags: MW
HStem: 0 85<235 267 352 384 235 267> 211 85<105 232 105 232> 350 85<105 267 105 105 352 352 352 384>
VStem: 20 85<0 211 296 350> 20 212<211 296 211 435 211 435> 235 149<0 85 0 85> 267 85<85 350 85 350>
LayerCount: 2
Fore
SplineSet
384 0 m 1xf4
 235 0 l 1
 235 85 l 1xf4
 267 85 l 1
 267 350 l 1
 105 350 l 1
 105 296 l 1xf2
 232 296 l 1
 232 211 l 1xec
 105 211 l 1
 105 0 l 1
 20 0 l 1
 20 435 l 1
 384 435 l 1
 384 350 l 1xf4
 352 350 l 1
 352 85 l 1xf2
 384 85 l 1
 384 0 l 1xf4
EndSplineSet
EndChar

StartChar: fl
Encoding: 64258 64258 117
Width: 530
Flags: MW
HStem: 0 85<399 502 399 502> 211 85<105 232 105 232> 350 85<105 235 105 105>
VStem: 20 85<0 211 296 350> 20 212<211 211 211 296 211 435> 314 85<85 435 85 435 85 435> 314 188<0 85 0 435>
LayerCount: 2
Fore
SplineSet
232 211 m 1xec
 105 211 l 1
 105 0 l 1
 20 0 l 1
 20 435 l 1
 235 435 l 1
 235 350 l 1
 105 350 l 1
 105 296 l 1xf4
 232 296 l 1
 232 211 l 1xec
314 0 m 1xea
 314 435 l 1
 399 435 l 1
 399 85 l 1xf2
 502 85 l 1
 502 0 l 1
 314 0 l 1xea
EndSplineSet
EndChar

StartChar: nn
Encoding: 65541 -1 118
Width: 536
Flags: MW
HStem: 0 21G<20 105 20 20 211 296 211 211 402 402 402 487> 415 20G<20 105 105 105 211 296 296 296 402 487 487 487>
VStem: 20 85<0 274 0 435> 211 85<0 74 74 74 234 274 0 435> 402 85<0 74 74 74 234 435 0 435>
CounterMasks: 1 38
LayerCount: 2
Fore
SplineSet
211 0 m 1
 211 74 l 1
 105 274 l 1
 105 0 l 1
 20 0 l 1
 20 435 l 1
 105 435 l 1
 211 234 l 1
 211 435 l 1
 296 435 l 1
 402 234 l 1
 402 435 l 1
 487 435 l 1
 487 0 l 1
 402 0 l 1
 402 74 l 1
 296 274 l 1
 296 0 l 1
 211 0 l 1
EndSplineSet
Ligature2: "'liga' Standard Ligatures in Latin lookup 1 subtable" n n
Ligature2: "'liga' Standard Ligatures in Latin lookup 1 subtable" N N
EndChar

StartChar: ll
Encoding: 65542 -1 119
Width: 410
Flags: MW
HStem: 0 85<104 364 104 364> 163 85<254 357 254 357> 678 20G<19 104 104 104 169 254 254 254>
VStem: 19 85<85 698 85 698 85 698> 169 85<248 698 248 698 248 698> 169 195<0 698>
LayerCount: 2
Fore
SplineSet
19 0 m 1xf4
 19 698 l 1
 104 698 l 1
 104 85 l 1
 364 85 l 1
 364 0 l 1
 19 0 l 1xf4
169 163 m 1
 169 698 l 1
 254 698 l 1
 254 248 l 1xf8
 357 248 l 1
 357 163 l 1
 169 163 l 1
EndSplineSet
Ligature2: "'liga' Standard Ligatures in Latin lookup 1 subtable" l l
Ligature2: "'liga' Standard Ligatures in Latin lookup 1 subtable" L L
EndChar

StartChar: lo
Encoding: 65543 -1 120
Width: 476
Flags: MW
HStem: 0 85<104 444 104 444> 122 85<275 319 275 349.5> 621 86<274.5 319>
VStem: 19 85<85 698 85 698 85 698> 152 85<267 562> 357 85<267 562>
LayerCount: 2
Fore
SplineSet
19 0 m 1
 19 698 l 1
 104 698 l 1
 104 85 l 1
 444 85 l 1
 444 0 l 1
 19 0 l 1
152 267 m 2
 152 562 l 2
 152 656 194 707 297 707 c 0
 400 707 442 656 442 562 c 2
 442 267 l 2
 442 174 401 122 298 122 c 0
 194 122 152 173 152 267 c 2
237 267 m 2
 237 228 253 207 297 207 c 0
 341 207 357 230 357 267 c 2
 357 562 l 2
 357 600 341 621 297 621 c 0
 252 621 237 600 237 562 c 2
 237 267 l 2
EndSplineSet
Ligature2: "'liga' Standard Ligatures in Latin lookup 1 subtable" l o
Ligature2: "'liga' Standard Ligatures in Latin lookup 1 subtable" L O
EndChar

StartChar: on
Encoding: 65544 -1 121
Width: 333
Flags: MW
HStem: 0 21G<20 105 20 20 211 296 211 211> 352 85<143 187 143 217.5> 621 86<142.5 187>
VStem: 20 85<0 184 0 315 497 562> 211 85<0 64 64 64 184 315 0 315> 225 85<497 562 450.5 581>
LayerCount: 2
Fore
SplineSet
20 497 m 2xf4
 20 562 l 2
 20 656 62 707 165 707 c 0
 268 707 310 656 310 562 c 2
 310 497 l 2
 310 404 269 352 166 352 c 0
 62 352 20 403 20 497 c 2xf4
105 497 m 2
 105 458 121 437 165 437 c 0
 209 437 225 460 225 497 c 2
 225 562 l 2
 225 600 209 621 165 621 c 0
 120 621 105 600 105 562 c 2
 105 497 l 2
211 0 m 1xf8
 211 64 l 1
 105 184 l 1
 105 0 l 1
 20 0 l 1
 20 315 l 1
 105 315 l 1
 211 184 l 1
 211 315 l 1
 296 315 l 1
 296 0 l 1
 211 0 l 1xf8
EndSplineSet
Ligature2: "'liga' Standard Ligatures in Latin lookup 1 subtable" o n
Ligature2: "'liga' Standard Ligatures in Latin lookup 1 subtable" O N
EndChar

StartChar: en
Encoding: 1085 1085 122
Width: 361
Flags: MW
HStem: 0 21G<20 105 20 20 211 296 211 211> 364 85<105 295 105 295> 500 75<105 292 105 292> 614 85<105 295 105 105>
VStem: 20 85<0 184 0 315 449 500 575 614> 211 85<0 64 64 64 184 315 0 315>
LayerCount: 2
Fore
SplineSet
211 0 m 1
 211 64 l 1
 105 184 l 1
 105 0 l 1
 20 0 l 1
 20 315 l 1
 105 315 l 1
 211 184 l 1
 211 315 l 1
 296 315 l 1
 296 0 l 1
 211 0 l 1
295 364 m 1
 20 364 l 1
 20 699 l 1
 295 699 l 1
 295 614 l 1
 105 614 l 1
 105 575 l 1
 292 575 l 1
 292 500 l 1
 105 500 l 1
 105 449 l 1
 295 449 l 1
 295 364 l 1
EndSplineSet
Ligature2: "'liga' Standard Ligatures in Latin lookup 1 subtable" e n
Ligature2: "'liga' Standard Ligatures in Latin lookup 1 subtable" E N
EndChar

StartChar: tt
Encoding: 65545 -1 123
Width: 499
Flags: MW
HStem: 0 21G<119 204 119 119 289 374 289 289> 615 85<20 119 20 474 204 289 204 204 374 474 374 374>
VStem: 119 85<0 615 0 615> 289 85<0 615 0 615>
LayerCount: 2
Fore
SplineSet
474 615 m 1
 374 615 l 1
 374 0 l 1
 289 0 l 1
 289 615 l 1
 204 615 l 1
 204 0 l 1
 119 0 l 1
 119 615 l 1
 20 615 l 1
 20 700 l 1
 474 700 l 1
 474 615 l 1
EndSplineSet
Ligature2: "'liga' Standard Ligatures in Latin lookup 1 subtable" t t
Ligature2: "'liga' Standard Ligatures in Latin lookup 1 subtable" T T
EndChar

StartChar: ou
Encoding: 65546 -1 124
Width: 346
Flags: MW
HStem: 0 85<115.5 228 171 228 171 313> 352 85<143 187 143 217.5> 621 86<142.5 187>
VStem: 20 85<145 295 497 562> 228 85<85 295 0 295>
LayerCount: 2
Fore
SplineSet
20 145 m 2
 20 295 l 1
 105 295 l 1
 105 145 l 2
 105 102 118 85 171 85 c 2
 228 85 l 1
 228 295 l 1
 313 295 l 1
 313 0 l 1
 171 0 l 2
 60 0 20 45 20 145 c 2
20 497 m 2
 20 562 l 2
 20 656 62 707 165 707 c 0
 268 707 310 656 310 562 c 2
 310 497 l 2
 310 404 269 352 166 352 c 0
 62 352 20 403 20 497 c 2
105 497 m 2
 105 458 121 437 165 437 c 0
 209 437 225 460 225 497 c 2
 225 562 l 2
 225 600 209 621 165 621 c 0
 120 621 105 600 105 562 c 2
 105 497 l 2
EndSplineSet
Ligature2: "'liga' Standard Ligatures in Latin lookup 1 subtable" o u
Ligature2: "'liga' Standard Ligatures in Latin lookup 1 subtable" O U
EndChar

StartChar: la
Encoding: 65547 -1 125
Width: 476
Flags: MW
HStem: 0 85<104 445 104 445> 222 85<254 324 254 337 240 324> 680 20G<211 367 367 367>
VStem: 19 85<85 698 85 698 85 698>
LayerCount: 2
Fore
SplineSet
19 0 m 1
 19 698 l 1
 104 698 l 1
 104 85 l 1
 445 85 l 1
 445 0 l 1
 19 0 l 1
367 700 m 1
 436 138 l 1
 351 138 l 1
 337 222 l 1
 240 222 l 1
 227 138 l 1
 142 138 l 1
 211 700 l 1
 367 700 l 1
289 646 m 1
 254 307 l 1
 324 307 l 1
 289 646 l 1
EndSplineSet
Ligature2: "'liga' Standard Ligatures in Latin lookup 1 subtable" l a
Ligature2: "'liga' Standard Ligatures in Latin lookup 1 subtable" L A
EndChar

StartChar: le
Encoding: 65548 -1 126
Width: 403
Flags: MW
HStem: 0 87<19 364 104 364 104 364> 150 87<253 363 253 363 168 363> 451 87<253 360 253 360> 611 87<253 363 253 253>
VStem: 19 85<87 698 87 698 87 698> 168 85<237 451 538 611> 168 195<150 237 611 698>
LayerCount: 2
Fore
SplineSet
363 150 m 1xfa
 168 150 l 1
 168 698 l 1
 363 698 l 1
 363 611 l 1xfa
 253 611 l 1
 253 538 l 1
 360 538 l 1
 360 451 l 1
 253 451 l 1
 253 237 l 1xfc
 363 237 l 1
 363 150 l 1xfa
19 0 m 1
 19 698 l 1
 104 698 l 1
 104 87 l 1
 364 87 l 1
 364 0 l 1
 19 0 l 1
EndSplineSet
Ligature2: "'liga' Standard Ligatures in Latin lookup 1 subtable" l e
Ligature2: "'liga' Standard Ligatures in Latin lookup 1 subtable" L E
EndChar

StartChar: ff
Encoding: 64256 64256 127
Width: 513
Flags: MW
HStem: 0 21G<20 105 20 20 235 320 235 235> 211 85<105 212 105 212 320 447> 350 85<105 235 105 105 320 320 320 450>
VStem: 20 85<0 211 296 350> 20 192<211 296 211 435 211 435> 235 85<0 211 296 350> 235 212<211 211 211 296 211 350 211 350>
LayerCount: 2
Fore
SplineSet
447 211 m 1xf2
 320 211 l 1
 320 0 l 1
 235 0 l 1
 235 350 l 1
 105 350 l 1
 105 296 l 1xf4
 212 296 l 1
 212 211 l 1xec
 105 211 l 1
 105 0 l 1
 20 0 l 1
 20 435 l 1
 450 435 l 1
 450 350 l 1
 320 350 l 1
 320 296 l 1xf4
 447 296 l 1
 447 211 l 1xf2
EndSplineSet
Ligature2: "'liga' Standard Ligatures in Latin lookup 1 subtable" f f
EndChar

StartChar: ffi
Encoding: 64259 64259 128
Width: 639
Flags: MW
HStem: 0 85<449 481 566 598 449 481> 211 85<105 212 105 212 320 447> 350 85<105 235 105 105 320 481 320 320 566 566 566 598>
VStem: 20 85<0 211 296 350> 20 192<211 296 211 435 211 435> 235 85<0 211 296 350> 235 212<211 296 211 350 211 350> 449 149<0 85 0 85> 481 85<85 350 85 350>
LayerCount: 2
Fore
SplineSet
598 0 m 1xf5
 449 0 l 1
 449 85 l 1xf5
 481 85 l 1
 481 350 l 1
 320 350 l 1
 320 296 l 1xf480
 447 296 l 1
 447 211 l 1xf3
 320 211 l 1
 320 0 l 1
 235 0 l 1
 235 350 l 1
 105 350 l 1
 105 296 l 1xf5
 212 296 l 1
 212 211 l 1xed
 105 211 l 1
 105 0 l 1
 20 0 l 1
 20 435 l 1
 598 435 l 1
 598 350 l 1xf5
 566 350 l 1
 566 85 l 1xf480
 598 85 l 1
 598 0 l 1xf5
EndSplineSet
Ligature2: "'liga' Standard Ligatures in Latin lookup 1 subtable" f f i
EndChar

StartChar: un
Encoding: 65549 -1 129
Width: 337
Flags: MW
HStem: 0 21G<20 105 20 20 211 296 211 211> 360 85<115.5 211 171 211 171 296> 680 20G<20 105 105 105 211 296 296 296>
VStem: 20 85<0 184 0 315 505 700> 211 85<0 64 64 64 184 315 0 315 445 700>
LayerCount: 2
Fore
SplineSet
211 0 m 1
 211 64 l 1
 105 184 l 1
 105 0 l 1
 20 0 l 1
 20 315 l 1
 105 315 l 1
 211 184 l 1
 211 315 l 1
 296 315 l 1
 296 0 l 1
 211 0 l 1
20 505 m 2
 20 700 l 1
 105 700 l 1
 105 505 l 2
 105 462 118 445 171 445 c 2
 211 445 l 1
 211 700 l 1
 296 700 l 1
 296 360 l 1
 171 360 l 2
 60 360 20 405 20 505 c 2
EndSplineSet
Ligature2: "'liga' Standard Ligatures in Latin lookup 1 subtable" u n
Ligature2: "'liga' Standard Ligatures in Latin lookup 1 subtable" U N
EndChar

StartChar: li
Encoding: 65550 -1 130
Width: 342
Flags: MW
HStem: 0 85<104 314 104 314> 147 85<151 183 268 300 151 183> 614 85<151 183 151 300 268 268 268 300> 678 20G<19 104 104 104>
VStem: 19 85<85 698 85 698 85 698> 151 149<147 232 147 232 614 699> 183 85<232 614 232 614>
LayerCount: 2
Fore
SplineSet
19 0 m 1xdc
 19 698 l 1
 104 698 l 1
 104 85 l 1
 314 85 l 1
 314 0 l 1
 19 0 l 1xdc
300 147 m 1
 151 147 l 1
 151 232 l 1xec
 183 232 l 1
 183 614 l 1xea
 151 614 l 1
 151 699 l 1
 300 699 l 1
 300 614 l 1xec
 268 614 l 1
 268 232 l 1xea
 300 232 l 1
 300 147 l 1
EndSplineSet
Ligature2: "'liga' Standard Ligatures in Latin lookup 1 subtable" l i
Ligature2: "'liga' Standard Ligatures in Latin lookup 1 subtable" L I
EndChar

StartChar: lu
Encoding: 65551 -1 131
Width: 493
Flags: MW
HStem: 0 87<19 462 104 462 104 462> 138 85<265.5 377 321 377 321 463> 679 20G<19 104 104 104> 680 20G<170 255 255 255 377 463 463 463>
VStem: 19 85<87 699 87 699 87 699> 170 85<283 700> 377 86<223 700 138 700>
LayerCount: 2
Fore
SplineSet
19 0 m 1xee
 19 699 l 1
 104 699 l 1
 104 87 l 1
 462 87 l 1
 462 0 l 1
 19 0 l 1xee
170 283 m 2
 170 700 l 1
 255 700 l 1
 255 283 l 2
 255 240 268 223 321 223 c 2
 377 223 l 1
 377 700 l 1
 463 700 l 1xde
 463 138 l 1
 321 138 l 2
 210 138 170 183 170 283 c 2
EndSplineSet
Ligature2: "'liga' Standard Ligatures in Latin lookup 1 subtable" l u
Ligature2: "'liga' Standard Ligatures in Latin lookup 1 subtable" L U
EndChar

StartChar: quotesingle
Encoding: 39 39 132
Width: 163
Flags: MW
HStem: 465 145<23 118 23 88>
LayerCount: 2
Fore
SplineSet
23 465 m 1
 23 610 l 1
 118 610 l 1
 88 465 l 1
 23 465 l 1
EndSplineSet
EndChar

StartChar: ch
Encoding: 65552 -1 133
Width: 648
Flags: MW
HStem: 0 85<115.5 319 171 319 171 404> 224 85<404 508 404 508> 350 85<145 264 171 264>
VStem: 20 85<145 290 145 340> 20 244<145 435 290 435> 319 85<85 224 309 435> 508 85<0 224 224 224 309 435 0 435>
LayerCount: 2
Fore
SplineSet
508 0 m 1xf6
 508 224 l 1
 404 224 l 1
 404 0 l 1
 171 0 l 2
 60 0 20 45 20 145 c 2
 20 290 l 2
 20 390 60 435 171 435 c 2
 264 435 l 1
 264 350 l 1xee
 171 350 l 2
 119 350 104 332 105 290 c 1
 105 145 l 1
 104 103 119 85 171 85 c 2
 319 85 l 1
 319 435 l 1
 404 435 l 1
 404 309 l 1
 508 309 l 1
 508 435 l 1
 593 435 l 1
 593 0 l 1
 508 0 l 1xf6
EndSplineSet
Ligature2: "'liga' Standard Ligatures in Latin lookup 1 subtable" c h
EndChar

StartChar: zh
Encoding: 65553 -1 134
Width: 659
Flags: MW
HStem: 0 85<124 329 20 20> 224 85<414 518 414 518> 350 85<40 181 40 283 40 283>
VStem: 40 243<350 435 350 435> 329 85<85 224 309 435> 518 85<0 224 224 224 309 435 0 435>
LayerCount: 2
Fore
SplineSet
518 0 m 1
 518 224 l 1
 414 224 l 1
 414 0 l 1
 20 0 l 1
 20 85 l 1
 181 350 l 1
 40 350 l 1
 40 435 l 1
 283 435 l 1
 283 350 l 1
 124 85 l 1
 329 85 l 1
 329 435 l 1
 414 435 l 1
 414 309 l 1
 518 309 l 1
 518 435 l 1
 603 435 l 1
 603 0 l 1
 518 0 l 1
EndSplineSet
Ligature2: "'liga' Standard Ligatures in Latin lookup 1 subtable" z h
EndChar

StartChar: c_skrab_h
Encoding: 65554 -1 135
Width: 670
Flags: MW
HStem: 0 85<115.5 264 171 264 171 340 171 425> 224 85<425 529 425 529> 350 85<145 264 171 264>
VStem: 20 85<145 290 145 340> 264 161<0 85 0 224 309 350 350 350 399 399 399 435> 340 85<0 224 309 358 358 358 399 435> 529 85<0 224 224 224 309 435 0 435>
LayerCount: 2
Fore
SplineSet
264 264 m 1xfa
 264 350 l 1
 171 350 l 2
 119 350 104 332 105 290 c 1
 105 145 l 1
 104 103 119 85 171 85 c 2
 264 85 l 1
 264 0 l 1
 171 0 l 2
 60 0 20 45 20 145 c 2
 20 290 l 2
 20 390 60 435 171 435 c 2
 264 435 l 1
 264 399 l 1xfa
 340 399 l 1
 340 435 l 1
 425 435 l 1
 425 309 l 1
 529 309 l 1
 529 435 l 1
 614 435 l 1
 614 0 l 1
 529 0 l 1
 529 224 l 1
 425 224 l 1
 425 0 l 1
 340 0 l 1
 340 358 l 1xf6
 319 264 l 1
 264 264 l 1xfa
EndSplineSet
Ligature2: "'liga' Standard Ligatures in Latin lookup 1 subtable" c quotesingle h
EndChar

StartChar: divide
Encoding: 247 247 136
Width: 335
Flags: MW
HStem: 48 100<137 165> 178 85<20 275 20 275> 295 100<137 165>
VStem: 101 100<84 112 331 359>
LayerCount: 2
Fore
SplineSet
101 98 m 0
 101 126 123 148 151 148 c 0
 179 148 201 126 201 98 c 0
 201 70 179 48 151 48 c 0
 123 48 101 70 101 98 c 0
101 345 m 0
 101 373 123 395 151 395 c 0
 179 395 201 373 201 345 c 0
 201 317 179 295 151 295 c 0
 123 295 101 317 101 345 c 0
20 263 m 1
 275 263 l 1
 275 178 l 1
 20 178 l 1
 20 263 l 1
EndSplineSet
EndChar

StartChar: zero
Encoding: 48 48 137
Width: 379
Flags: MW
HStem: -9 85<142 210.5 142 237> 359 85<142 210.5>
VStem: 20 85<174 267.5 174 294> 250 85<174 267.5>
LayerCount: 2
Fore
SplineSet
335 219 m 0
 335 65 297 -9 177 -9 c 0
 52 -9 20 66 20 219 c 0
 20 369 52 444 177 444 c 0
 297 444 335 370 335 219 c 0
105 219 m 0
 105 129 107 76 177 76 c 0
 244 76 250 129 250 219 c 0
 250 316 244 359 177 359 c 0
 107 359 105 316 105 219 c 0
EndSplineSet
EndChar

StartChar: multiply
Encoding: 215 215 138
Width: 322
Flags: MW
HStem: 0 225<50 125 50 125 212 287 50 212>
LayerCount: 2
Fore
SplineSet
287 225 m 1
 213 107 l 1
 287 0 l 1
 212 0 l 1
 168 57 l 1
 125 0 l 1
 50 0 l 1
 124 107 l 1
 50 225 l 1
 125 225 l 1
 168 157 l 1
 212 225 l 1
 287 225 l 1
EndSplineSet
EndChar

StartChar: asterisk
Encoding: 42 42 139
Width: 239
Flags: MW
HStem: 509 21G<99 132 99 99> 588 34<20 73 20 75 20 73 157 211> 680 20G<99 132 132 132>
VStem: 99 33<509 564 509 564 645 700>
LayerCount: 2
Fore
SplineSet
171 525 m 1
 132 564 l 1
 132 509 l 1
 99 509 l 1
 99 564 l 1
 60 525 l 1
 36 549 l 1
 75 588 l 1
 20 588 l 1
 20 622 l 1
 73 622 l 1
 35 660 l 1
 59 684 l 1
 99 644 l 1
 99 700 l 1
 132 700 l 1
 132 645 l 1
 171 684 l 1
 195 660 l 1
 157 622 l 1
 211 622 l 1
 211 588 l 1
 155 588 l 1
 195 549 l 1
 171 525 l 1
EndSplineSet
EndChar

StartChar: ironi
Encoding: 65555 -1 141
Width: 275
Flags: MW
HStem: 0 86<139 224 139 224> 130 102<139 143.5 120 224 139 139> 162 70 375 74<161.5 221>
VStem: 20 77<258.5 304 258.5 316> 139 85<0 86 0 86 130 159 159 159>
LayerCount: 2
Fore
SplineSet
199 242 m 2xbc
 224 242 l 1
 224 130 l 1
 139 130 l 1xdc
 139 159 l 1
 153 178 l 1
 143 174 137 164 105 162 c 0
 50 159 20 202 20 258 c 0
 20 374 102 449 221 449 c 1
 221 375 l 1
 151 373 97 338 97 270 c 0
 97 247 108 232 132 232 c 0
 155 232 166 242 199 242 c 2xbc
224 86 m 1
 224 0 l 1
 139 0 l 1
 139 86 l 1
 224 86 l 1
EndSplineSet
Ligature2: "'liga' Standard Ligatures in Latin lookup 1 subtable" question exclam question
EndChar

StartChar: virg_exclam
Encoding: 65556 -1 142
Width: 173
Flags: MW
HStem: -51 21G<24 24 24 79> 84 46<30 30 30 105> 415 20G<20 115 115 115>
VStem: 25 85
LayerCount: 2
Fore
SplineSet
30 130 m 1
 20 330 l 1
 20 435 l 1
 115 435 l 1
 115 330 l 1
 105 130 l 1
 30 130 l 1
24 -51 m 1
 24 84 l 1
 109 84 l 1
 79 -51 l 1
 24 -51 l 1
EndSplineSet
Ligature2: "'liga' Standard Ligatures in Latin lookup 1 subtable" exclam comma
Ligature2: "'liga' Standard Ligatures in Latin lookup 1 subtable" comma exclam
EndChar

StartChar: exclarrogatif
Encoding: 65557 -1 143
Width: 362
Flags: MW
HStem: 0 86<72 157 72 157> 310 139<19 192 19 192> 375 74<156.5 178.5>
VStem: 19 144 76 87 76 236
LayerCount: 2
Fore
SplineSet
81 130 m 1xc8
 72 300 l 1
 106 300 l 1
 114 330 l 1
 166 330 l 1
 161 242 l 1
 191 243 207 257 217 273 c 0
 225 286 228 304 228 312 c 0
 228 329 225 341 214 354 c 0
 202 368 190 375 167 375 c 0xa8
 146 375 129 371 117 358 c 0
 102 341 102 310 102 310 c 1
 19 310 l 1xd0
 19 363 28 385 56 412 c 0
 84 439 123 449 157 449 c 0
 227 449 249 436 276 408 c 0
 303 380 312 339 312 300 c 0xc4
 312 265 302 236 276 209 c 0
 249 181 218 172 158 172 c 1
 157 150 l 1
 157 130 l 1
 81 130 l 1xc8
72 0 m 1
 72 86 l 1
 157 86 l 1
 157 0 l 1
 72 0 l 1
EndSplineSet
Ligature2: "'liga' Standard Ligatures in Latin lookup 1 subtable" question exclam
EndChar

StartChar: parenleft
Encoding: 40 40 144
Width: 221
Flags: MW
HStem: -40 85<150.5 176 150.5 176> 660 85<152.5 176>
VStem: 20 90<105 600> 20 156<-40 600>
LayerCount: 2
Fore
SplineSet
177 745 m 1xe0
 176 660 l 1xd0
 129 660 110 632 110 600 c 2
 110 102 l 2xe0
 110 71 125 45 176 45 c 1
 176 -40 l 1xd0
 65 -40 20 13 20 105 c 2
 20 600 l 2
 20 692 62 745 177 745 c 1xe0
EndSplineSet
EndChar

StartChar: parenright
Encoding: 41 41 145
Width: 217
Flags: MW
HStem: -40 85<23 48.5 23 78.5> 660 85<23 46.5>
VStem: 23 156<-40 105 45 105> 89 90<102 105 105 600>
LayerCount: 2
Fore
SplineSet
23 660 m 1xe0
 22 745 l 1
 137 745 179 692 179 600 c 2
 179 105 l 2
 179 13 134 -40 23 -40 c 1
 23 45 l 1xe0
 74 45 89 71 89 102 c 2
 89 600 l 2xd0
 89 632 70 660 23 660 c 1xe0
EndSplineSet
EndChar

StartChar: copyright
Encoding: 169 169 146
Width: 626
Flags: MW
HStem: 79 55<244 366 244 381> 252 51<214 291 235 291 403 459> 390 51<225.5 291 235 291 403 459> 574 55<244 366>
VStem: 30 55<293 415 293 430> 525 55<293 415>
LayerCount: 2
Fore
SplineSet
235 441 m 2
 291 441 l 1
 291 390 l 1
 235 390 l 2
 216 390 207 390 201 381 c 0
 195 372 195 354 195 354 c 1
 195 339 l 1
 195 339 195 322 201 314 c 1
 207 304 216 303 235 303 c 2
 291 303 l 1
 291 252 l 1
 235 252 l 2
 193 252 180 258 164 275 c 1
 147 291 144 316 144 339 c 2
 144 354 l 2
 144 378 147 402 164 420 c 0
 180 436 193 441 235 441 c 2
403 441 m 2
 459 441 l 1
 459 390 l 1
 403 390 l 2
 384 390 375 390 369 381 c 0
 363 372 363 354 363 354 c 1
 363 339 l 1
 363 339 363 322 369 314 c 1
 375 304 384 303 403 303 c 2
 459 303 l 1
 459 252 l 1
 403 252 l 2
 361 252 348 258 332 275 c 1
 315 291 312 316 312 339 c 2
 312 354 l 2
 312 378 315 402 332 420 c 0
 348 436 361 441 403 441 c 2
30 354 m 0
 30 506 153 629 305 629 c 0
 457 629 580 506 580 354 c 0
 580 202 457 79 305 79 c 0
 153 79 30 202 30 354 c 0
85 354 m 0
 85 232 183 134 305 134 c 0
 427 134 525 232 525 354 c 0
 525 476 427 574 305 574 c 0
 183 574 85 476 85 354 c 0
EndSplineSet
EndChar

StartChar: fraction
Encoding: 8260 8260 147
Width: 335
Flags: MW
HStem: 0 21G<7 97 7 7> 678 20G<232 323 323 323>
LayerCount: 2
Fore
SplineSet
323 698 m 1
 97 0 l 1
 7 0 l 1
 232 698 l 1
 323 698 l 1
EndSplineSet
EndChar

StartChar: questiondown
Encoding: 191 191 148
Width: 361
Flags: MW
HStem: -268 89<142.5 200 142.5 223.5> -268 164<96 334> 50 85<171 236 171 256> 50 215<175.5 236 236 256> 349 86<171 256 171 256>
VStem: 13 85<-100 2.5 -100 26> 171 85<135 265 349 435> 246 88<-173.5 -104>
LayerCount: 2
Fore
SplineSet
256 50 m 1x9e
 236 50 l 2
 115 50 98 46 98 -41 c 0
 98 -159 111 -179 174 -179 c 0x9e
 226 -179 244 -167 246 -104 c 1
 334 -104 l 1x6d
 334 -243 283 -268 164 -268 c 0
 28 -268 13 -193 13 -41 c 0
 13 93 37 133 171 135 c 1x6e
 171 265 l 1
 256 265 l 1
 256 50 l 1x9e
256 435 m 1
 256 349 l 1
 171 349 l 1
 171 435 l 1
 256 435 l 1
EndSplineSet
EndChar

StartChar: plusminus
Encoding: 177 177 149
Width: 337
Flags: MW
HStem: 10 85<20 275 20 275> 228 85<20 104 20 104 189 275> 382 20G<104 189 189 189>
VStem: 104 85<147 228 147 228 313 402>
LayerCount: 2
Fore
SplineSet
104 147 m 1
 104 228 l 1
 20 228 l 1
 20 313 l 1
 104 313 l 1
 104 402 l 1
 189 402 l 1
 189 313 l 1
 275 313 l 1
 275 228 l 1
 189 228 l 1
 189 147 l 1
 104 147 l 1
20 95 m 1
 275 95 l 1
 275 10 l 1
 20 10 l 1
 20 95 l 1
EndSplineSet
EndChar

StartChar: tilde
Encoding: 732 732 150
Width: 526
Flags: W
LayerCount: 2
Fore
SplineSet
377 548 m 1
 414 542 l 1
 406 494 361 462 315 471 c 1
 281 476 256 499 246 528 c 1
 227 524 212 509 209 489 c 1
 172 495 l 1
 180 543 224 575 272 566 c 0
 305 560 330 537 339 508 c 1
 358 512 374 527 377 548 c 1
EndSplineSet
EndChar

StartChar: ntilde
Encoding: 241 241 151
Width: 346
Flags: MW
HStem: 0 21G<20 105 20 20 211 296 211 211> 415 20G<20 105 105 105 211 296 296 296>
VStem: 20 85<0 274 0 435> 211 85<0 74 74 74 234 435 0 435>
LayerCount: 2
Fore
SplineSet
211 0 m 1
 211 74 l 1
 105 274 l 1
 105 0 l 1
 20 0 l 1
 20 435 l 1
 105 435 l 1
 211 234 l 1
 211 435 l 1
 296 435 l 1
 296 0 l 1
 211 0 l 1
245 548 m 1
 282 542 l 1
 274 494 229 462 183 471 c 1
 149 476 124 499 114 528 c 1
 95 524 80 509 77 489 c 1
 40 495 l 1
 48 543 92 575 140 566 c 0
 173 560 198 537 207 508 c 1
 226 512 242 527 245 548 c 1
EndSplineSet
EndChar

StartChar: atilde
Encoding: 227 227 152
Width: 343
Flags: MW
HStem: 0 21G<20 105 20 20 229 314 229 229> 84 85<132 202 132 215 118 202> 415 20G<89 245 245 245>
LayerCount: 2
Fore
SplineSet
245 435 m 1
 314 0 l 1
 229 0 l 1
 215 84 l 1
 118 84 l 1
 105 0 l 1
 20 0 l 1
 89 435 l 1
 245 435 l 1
167 391 m 1
 132 169 l 1
 202 169 l 1
 167 391 l 1
256 548 m 1
 293 542 l 1
 285 494 240 462 194 471 c 1
 160 476 135 499 125 528 c 1
 106 524 91 509 88 489 c 1
 51 495 l 1
 59 543 103 575 151 566 c 0
 184 560 209 537 218 508 c 1
 237 512 253 527 256 548 c 1
EndSplineSet
EndChar

StartChar: saucisse
Encoding: 65558 -1 153
Width: 1778
Flags: MW
HStem: -10 21G<1217.5 1310> 0 61 0 85<115.5 264 171 264 171 300 171 385 926 958 1043 1075> 0 125<926 1200> 157 69 157 85<1228.5 1255> 193 242 224 85<385 489 385 489> 310 125 350 85<145 264 171 264 926 958 1043 1043 1043 1075 1428 1527 1612 1612 1612 1712> 374 61 425 20G<1199.5 1292.5>
VStem: 20 85<145 290 145 340> 20 244<0 290 0 340> 300 85<0 224 309 435> 489 85<0 224 224 224 309 435 0 435> 613 85<0 146 0 226 226 356> 796 79<267.5 317> 926 149<0 85 0 85 350 435> 958 85<85 350 85 350> 1104 96 1321 85<105.5 148> 1527 85<0 350 0 350>
LayerCount: 2
Fore
SplineSet
171 435 m 2x484bee
 264 435 l 1
 264 350 l 1x4147ee
 171 350 l 2
 119 350 104 332 105 290 c 1
 105 145 l 1x484bee
 104 103 119 85 171 85 c 2
 264 85 l 1
 264 0 l 1x2887ee
 171 0 l 2
 60 0 20 45 20 145 c 2
 20 290 l 2
 20 390 60 435 171 435 c 2x484bee
489 0 m 1
 489 224 l 1
 385 224 l 1
 385 0 l 1
 300 0 l 1
 300 435 l 1
 385 435 l 1
 385 309 l 1
 489 309 l 1
 489 435 l 1
 574 435 l 1
 574 0 l 1
 489 0 l 1
742 146 m 1
 698 146 l 1
 698 0 l 1
 613 0 l 1
 613 435 l 1
 752 435 l 1
 856 428 875 353 875 286 c 0
 875 230 865 190 822 164 c 1
 894 0 l 1
 807 0 l 1
 742 146 l 1
729 356 m 2
 698 356 l 1
 698 226 l 1
 736 226 l 2x288bee
 775 226 796 245 796 290 c 0
 796 344 770 356 729 356 c 2
1075 0 m 1
 926 0 l 1
 926 85 l 1x284bee
 958 85 l 1
 958 350 l 1x284bde
 926 350 l 1
 926 435 l 1
 1075 435 l 1
 1075 350 l 1x484bee
 1043 350 l 1
 1043 85 l 1x284bde
 1075 85 l 1
 1075 0 l 1
1712 350 m 1
 1612 350 l 1
 1612 0 l 1
 1527 0 l 1
 1527 350 l 1
 1428 350 l 1
 1428 435 l 1
 1712 435 l 1
 1712 350 l 1
1255 193 m 1x420bee
 1255 157 l 1
 1145 149 1104 208 1104 300 c 0
 1104 400 1144 445 1255 445 c 0x481bee
 1330 445 1403 401 1393 310 c 1
 1310 310 l 1x488bee
 1310 350 1287 374 1249 374 c 0
 1204 374 1189 337 1189 307 c 0
 1189 273 1202 242 1255 242 c 1
 1255 278 l 1
 1366 287 1406 225 1406 133 c 0
 1406 34 1365 -10 1255 -10 c 0x842bee
 1180 -10 1107 34 1117 125 c 1
 1200 125 l 1x188bee
 1200 87 1223 61 1261 61 c 0
 1306 61 1321 80 1321 131 c 0
 1321 165 1306 193 1255 193 c 1x420bee
EndSplineSet
Ligature2: "'liga' Standard Ligatures in Latin lookup 1 subtable" p eacute n i s
EndChar

StartChar: a.alt
Encoding: 65559 -1 154
Width: 343
Flags: MW
HStem: 0 84<118 215 118 314> 415 20G<89 245 245 245>
LayerCount: 2
Fore
SplineSet
118 84 m 1
 215 84 l 1
 167 391 l 1
 118 84 l 1
314 0 m 1
 20 0 l 1
 89 435 l 1
 245 435 l 1
 314 0 l 1
EndSplineSet
EndChar

StartChar: question.alt
Encoding: 65560 -1 155
Width: 350
Flags: MW
HStem: 0 86<77 162 77 162> 563 139<24 215.5 24 215.5> 628 74<152.5 191>
VStem: 77 85<0 86 0 86 130 425> 233 84<546.5 582.5>
LayerCount: 2
Fore
SplineSet
77 495 m 1xd8
 162 495 l 2
 209 495 233 528 233 565 c 0
 233 600 210 628 172 628 c 0xb8
 133 628 107 607 107 563 c 1
 24 563 l 1
 24 671 88 702 162 702 c 0
 269 702 317 649 317 553 c 0
 317 470 255 417 162 425 c 1
 162 130 l 1
 77 130 l 1
 77 495 l 1xd8
77 0 m 1
 77 86 l 1
 162 86 l 1
 162 0 l 1
 77 0 l 1
EndSplineSet
EndChar

StartChar: otilde
Encoding: 245 245 156
Width: 375
Flags: MW
HStem: -12 85<143 185 143 217.5> 366 86<142.5 187>
VStem: 20 85<133 307> 225 85<133 307>
LayerCount: 2
Fore
SplineSet
20 133 m 1
 20 307 l 2
 20 396 62 452 165 452 c 0
 268 452 310 396 310 307 c 2
 310 133 l 2
 310 44 269 -12 166 -12 c 0
 66 -12 14 43 20 133 c 1
105 133 m 2
 105 94 121 73 165 73 c 0
 205 73 225 89 225 133 c 2
 225 307 l 2
 225 345 209 366 165 366 c 0
 120 366 105 345 105 307 c 2
 105 133 l 2
248 548 m 1
 285 542 l 1
 277 494 232 462 186 471 c 1
 152 476 127 499 117 528 c 1
 98 524 83 509 80 489 c 1
 43 495 l 1
 51 543 95 575 143 566 c 0
 176 560 201 537 210 508 c 1
 229 512 245 527 248 548 c 1
EndSplineSet
EndChar

StartChar: q.alt
Encoding: 65561 -1 157
Width: 356
Flags: MW
HStem: -46 21G<243 243> 0 21G<135.5 171> 415 20G<135 185>
VStem: 15 85<145 231> 220 85<169 290>
LayerCount: 2
Fore
SplineSet
15 145 m 2
 15 290 l 2
 15 329 20 370 47 398 c 0
 70 422 110 435 160 435 c 0
 210 435 250 422 273 398 c 0
 300 370 305 329 305 290 c 2
 305 145 l 2
 305 111 301 76 282 49 c 1
 314 -11 l 1
 243 -46 l 1
 216 6 l 1
 199 2 181 0 161 0 c 0
 110 0 70 13 47 37 c 0
 20 65 15 106 15 145 c 2
160 349 m 1
 151 348 139 347 128 344 c 1
 220 169 l 1
 220 290 l 2
 220 295 222 317 211 333 c 0
 203 344 175 348 160 349 c 1
109 102 m 0
 116 91 145 87 160 85 c 0
 164 85 169 86 174 87 c 1
 100 231 l 1
 100 145 l 2
 100 140 98 118 109 102 c 0
EndSplineSet
EndChar

StartChar: r.alt
Encoding: 65562 -1 158
Width: 347
Flags: MW
HStem: -1 227<17 311 17 222> 0 21G<17 102 17 17> 356 79<17 37 17 156 124 124 124 133>
VStem: 17 85<0 146 0 226 0 226> 200 79<278.5 317>
LayerCount: 2
Fore
SplineSet
37 356 m 1xb8
 17 356 l 1
 17 435 l 1
 156 435 l 1
 260 428 279 353 279 286 c 0
 279 230 269 190 224 163 c 1
 311 -1 l 1
 222 -1 l 1xb8
 146 146 l 1
 102 146 l 1
 102 0 l 1
 17 0 l 1x78
 17 226 l 1
 104 226 l 1
 37 356 l 1xb8
133 356 m 2
 124 356 l 1
 184 240 l 1
 194 251 200 267 200 290 c 0
 200 344 174 356 133 356 c 2
EndSplineSet
EndChar

StartChar: s.alt
Encoding: 65563 -1 159
Width: 340
Flags: MW
HStem: -10 71<170.5 195 170.5 210> -10 135<37 210> 310 135<140 313 140 230> 374 71<155 179.5>
LayerCount: 2
Fore
SplineSet
175 193 m 1xa0
 175 157 l 1
 105 157 83 166 56 194 c 0
 29 221 24 261 24 300 c 0
 24 339 29 380 56 408 c 0
 83 436 105 445 175 445 c 0
 209 445 248 439 276 412 c 0
 304 385 313 363 313 310 c 1
 230 310 l 1xa0
 230 310 230 341 215 358 c 0
 203 371 190 374 169 374 c 0
 141 374 128 358 118 343 c 0
 109 329 109 300 109 300 c 2
 109 296 109 273 118 259 c 0
 128 242 142 242 175 242 c 1
 175 278 l 1
 245 278 267 269 294 241 c 0
 321 213 326 172 326 133 c 0
 326 94 320 54 294 27 c 0
 267 -1 245 -10 175 -10 c 0
 141 -10 102 -4 74 23 c 0
 46 50 37 72 37 125 c 1
 120 125 l 1x50
 120 125 120 94 135 77 c 0
 147 64 160 61 181 61 c 0
 209 61 222 77 232 92 c 0
 241 106 241 135 241 135 c 2
 241 139 240 162 232 176 c 0
 222 193 208 193 175 193 c 1xa0
EndSplineSet
EndChar

StartChar: m.alt
Encoding: 65564 -1 160
Width: 425
Flags: MW
HStem: 0 21G<20 105 20 20 290 375 290 290> 415 20G<20 85 85 85 310 375 375 375>
VStem: 20 85<0 296 0 435> 290 85<0 296 296 296>
LayerCount: 2
Fore
SplineSet
290 0 m 1
 290 296 l 1
 198 185 l 1
 105 296 l 1
 105 0 l 1
 20 0 l 1
 20 435 l 1
 85 435 l 1
 197 304 l 1
 310 435 l 1
 375 435 l 1
 375 0 l 1
 290 0 l 1
EndSplineSet
EndChar

StartChar: quoteleft
Encoding: 8216 8216 161
Width: 172
Flags: MW
HStem: 555 145<23 118 23 88>
LayerCount: 2
Fore
SplineSet
23 555 m 1
 23 700 l 1
 118 700 l 1
 88 555 l 1
 23 555 l 1
EndSplineSet
EndChar

StartChar: quoteright
Encoding: 8217 8217 162
Width: 180
Flags: MW
HStem: 555 145<55 120 55 55>
LayerCount: 2
Fore
SplineSet
120 700 m 1
 120 555 l 1
 55 555 l 1
 25 700 l 1
 120 700 l 1
EndSplineSet
EndChar

StartChar: quotesinglbase
Encoding: 8218 8218 163
Width: 367
Flags: MW
HStem: -52 21G<128 128 128 183> 63 20G<128 213 213 213>
LayerCount: 2
Fore
SplineSet
128 -52 m 1
 128 83 l 1
 213 83 l 1
 183 -52 l 1
 128 -52 l 1
EndSplineSet
EndChar

StartChar: A
Encoding: 65 65 164
Width: 378
Flags: MW
HStem: 0 21G<0 0 0 89 246 246 246 336> 116 90<117 216 117 229 105 216> 680 20G<92 236 236 236>
LayerCount: 2
Fore
SplineSet
0 0 m 1
 92 700 l 1
 236 700 l 1
 336 0 l 1
 246 0 l 1
 229 116 l 1
 105 116 l 1
 89 0 l 1
 0 0 l 1
117 206 m 1
 216 206 l 1
 164 615 l 1
 117 206 l 1
EndSplineSet
Substitution2: "'calt' Contextual Alternates in Latin lookup 0 subtable" A.alt
EndChar

StartChar: B
Encoding: 66 66 165
Width: 355
Flags: MW
HStem: 0 90<109 154.5 109 182 21 154.5> 343 92<109 136.5 109 153> 610 90<109 122 122 138>
VStem: 21 88<90 90 90 343 435 610> 192 83<507 543 543 563 447.5 573.5> 221 88<161 251 251 264>
LayerCount: 2
Fore
SplineSet
275 563 m 2xf8
 275 488 l 2xf8
 275 407 242 396 236 395 c 1
 241 395 309 390 309 264 c 2
 309 146 l 2xf4
 309 82 303 0 182 0 c 2
 21 0 l 1
 21 700 l 1
 122 700 l 2
 243 700 275 657 275 563 c 2xf8
109 90 m 1
 200 90 221 91 221 161 c 2
 221 251 l 2xf4
 221 343 197 343 109 343 c 1
 109 90 l 1
109 610 m 1
 109 435 l 1
 164 435 192 446 192 507 c 2
 192 543 l 2xf8
 192 604 167 610 109 610 c 1
EndSplineSet
EndChar

StartChar: C
Encoding: 67 67 166
Width: 299
Flags: MW
HStem: -1 88<175 182 182 248 175 250> 610 88<172 185 185 248>
VStem: 21 88<147 550 147 553 147 572.5>
LayerCount: 2
Fore
SplineSet
21 144 m 2
 21 553 l 2
 21 592 26 633 53 661 c 0
 80 689 102 698 172 698 c 2
 250 698 l 1
 248 610 l 1
 185 610 l 2
 146 610 129 610 118 594 c 0
 109 581 109 550 109 550 c 1
 109 147 l 1
 109 147 112 118 121 105 c 0
 132 89 146 87 175 87 c 2
 248 87 l 1
 250 -1 l 1
 182 -1 l 2
 102 -1 80 8 53 36 c 0
 26 64 21 105 21 144 c 2
EndSplineSet
EndChar

StartChar: ti
Encoding: 65565 -1 167
Width: 462
Flags: MW
HStem: 0 85<119 294 262 294 262 294 379 411> 458 85<262 294 262 411 379 379 379 411> 608 90<20 119 20 409 209 409 209 209>
VStem: 119 90<0 608 0 608> 262 147<458 608 543 608> 294 85<85 458 85 458>
LayerCount: 2
Fore
SplineSet
409 608 m 1xf8
 209 608 l 1
 209 0 l 1
 119 0 l 1
 119 608 l 1
 20 608 l 1
 20 698 l 1
 409 698 l 1
 409 608 l 1xf8
411 0 m 1
 262 0 l 1
 262 85 l 1xf8
 294 85 l 1
 294 458 l 1xf4
 262 458 l 1
 262 543 l 1xf8
 411 543 l 1
 411 458 l 1
 379 458 l 1
 379 85 l 1xf4
 411 85 l 1
 411 0 l 1
EndSplineSet
Ligature2: "'liga' Standard Ligatures in Latin lookup 1 subtable" t i
Ligature2: "'liga' Standard Ligatures in Latin lookup 1 subtable" T I
EndChar

StartChar: Euro
Encoding: 8364 8364 169
Width: 362
Flags: MW
HStem: 0 85<162 310 217 310> 136 65<0 66 0 66 151 280> 236 65<0 66 0 66 151 280> 350 85<193.5 310 217 310>
VStem: 66 85<136 136 201 236> 66 244<0 136 0 236 0 236 0 301>
LayerCount: 2
Fore
SplineSet
217 435 m 2xf8
 310 435 l 1
 310 350 l 1xf4
 217 350 l 2
 170 350 153 335 151 301 c 1
 280 301 l 1
 280 236 l 1
 151 236 l 1
 151 201 l 1
 280 201 l 1
 280 136 l 1
 151 136 l 1xf8
 152 100 169 85 217 85 c 2
 310 85 l 1
 310 0 l 1xf4
 217 0 l 2
 107 0 69 42 66 136 c 1
 0 136 l 1
 0 201 l 1
 66 201 l 1
 66 236 l 1
 0 236 l 1
 0 301 l 1
 66 301 l 1
 69 393 108 435 217 435 c 2xf8
EndSplineSet
EndChar

StartChar: percent
Encoding: 37 37 170
Width: 485
Flags: MW
HStem: 0 21G<65 155 65 65> 12 65<345.5 364.5 345.5 382.5> 145 65<345.5 364.5> 221 65<111.5 130.5 111.5 148.5> 354 65<111.5 130.5> 415 20G<325 416 416 416>
VStem: 22 65<310.5 329.5 310.5 347.5> 155 65<310.5 329.5> 256 65<101.5 120.5 101.5 138.5> 389 65<101.5 120.5>
LayerCount: 2
Fore
SplineSet
416 435 m 1xb7c0
 155 0 l 1
 65 0 l 1
 325 435 l 1
 416 435 l 1xb7c0
256 111 m 0
 256 166 300 210 355 210 c 0
 410 210 454 166 454 111 c 0
 454 56 410 12 355 12 c 0x7bc0
 300 12 256 56 256 111 c 0
321 111 m 0
 321 92 336 77 355 77 c 0
 374 77 389 92 389 111 c 0
 389 130 374 145 355 145 c 0
 336 145 321 130 321 111 c 0
22 320 m 0
 22 375 66 419 121 419 c 0
 176 419 220 375 220 320 c 0
 220 265 176 221 121 221 c 0
 66 221 22 265 22 320 c 0
87 320 m 0
 87 301 102 286 121 286 c 0
 140 286 155 301 155 320 c 0
 155 339 140 354 121 354 c 0
 102 354 87 339 87 320 c 0
EndSplineSet
EndChar

StartChar: ordmasculine
Encoding: 186 186 171
Width: 360
Flags: MW
HStem: 228 38<269 288 269 302.5> 399 39<268.5 289>
VStem: 213 39<293 372> 306 38<293 372>
LayerCount: 2
Fore
SplineSet
213 293 m 1
 213 372 l 2
 213 412 232 438 279 438 c 0
 325 438 344 412 344 372 c 2
 344 293 l 2
 344 253 326 228 279 228 c 0
 234 228 210 252 213 293 c 1
252 293 m 2
 252 276 259 266 279 266 c 0
 297 266 306 273 306 293 c 2
 306 372 l 2
 306 389 299 399 279 399 c 0
 258 399 252 389 252 372 c 2
 252 293 l 2
EndSplineSet
EndChar

StartChar: perthousand
Encoding: 8240 8240 172
Width: 528
Flags: MW
HStem: 0 21G<65 155 65 65> 12 65<345.5 364.5 345.5 375 525.5 544.5> 145 65<345.5 364.5 525.5 544.5> 221 65<111.5 130.5 111.5 148.5> 354 65<111.5 130.5> 415 20G<325 416 416 416>
VStem: 22 65<310.5 329.5 310.5 347.5> 155 65<310.5 329.5> 256 65<101.5 120.5 101.5 138.5> 389 112<101.5 120.5> 569 65<101.5 120.5>
LayerCount: 2
Fore
SplineSet
256 111 m 0x77e0
 256 166 300 210 355 210 c 0
 395 210 429 186 445 152 c 1
 460 186 495 210 535 210 c 0
 590 210 634 166 634 111 c 0
 634 56 590 12 535 12 c 0
 495 12 460 35 445 69 c 1
 429 35 395 12 355 12 c 0
 300 12 256 56 256 111 c 0x77e0
416 435 m 1
 155 0 l 1
 65 0 l 1xb7e0
 325 435 l 1
 416 435 l 1
22 320 m 0
 22 375 66 419 121 419 c 0x7be0
 176 419 220 375 220 320 c 0
 220 265 176 221 121 221 c 0
 66 221 22 265 22 320 c 0
501 111 m 0
 501 92 516 77 535 77 c 0
 554 77 569 92 569 111 c 0
 569 130 554 145 535 145 c 0
 516 145 501 130 501 111 c 0
321 111 m 0
 321 92 336 77 355 77 c 0
 374 77 389 92 389 111 c 0
 389 130 374 145 355 145 c 0
 336 145 321 130 321 111 c 0
87 320 m 0
 87 301 102 286 121 286 c 0
 140 286 155 301 155 320 c 0
 155 339 140 354 121 354 c 0
 102 354 87 339 87 320 c 0
EndSplineSet
EndChar

StartChar: numbersign
Encoding: 35 35 173
Width: 435
Flags: MW
HStem: 44 155<36 73 19 111 36 36 176 213 19 251 176 176> 134 65<19 58 19 73 148 198 19 133 288 354> 258 65<35 88 35 103 178 228 35 163 318 380> 258 161<35 202 35 202 163 202 127 228 163 163 303 342 127 380 303 303>
LayerCount: 2
Fore
SplineSet
35 323 m 1xa0
 103 323 l 1xa0
 127 419 l 1
 202 419 l 1x90
 178 323 l 1
 243 323 l 1xa0
 267 419 l 1
 342 419 l 1x90
 318 323 l 1
 380 323 l 1
 380 258 l 1
 303 258 l 1
 288 199 l 1
 354 199 l 1
 354 134 l 1
 273 134 l 1x60
 251 44 l 1
 176 44 l 1xa0
 198 134 l 1
 133 134 l 1x60
 111 44 l 1
 36 44 l 1xa0
 58 134 l 1
 19 134 l 1x60
 19 199 l 1
 73 199 l 1
 88 258 l 1
 35 258 l 1
 35 323 l 1xa0
163 258 m 1
 148 199 l 1
 213 199 l 1
 228 258 l 1
 163 258 l 1
EndSplineSet
EndChar

StartChar: braceleft
Encoding: 123 123 174
Width: 270
Flags: MW
HStem: -90 85<184.5 211 184.5 211> 660 85<187.5 211>
VStem: 60 85<55 286 55 286 366 600> 60 151<-90 286>
LayerCount: 2
Fore
SplineSet
211 745 m 1xe0
 211 660 l 1xd0
 164 660 144 632 145 600 c 1
 145 366 l 1
 105 326 l 1
 145 286 l 1
 145 55 l 1xe0
 144 23 158 -5 211 -5 c 1
 211 -90 l 1xd0
 100 -90 60 -37 60 55 c 2
 60 286 l 1
 20 326 l 1
 60 366 l 1
 60 600 l 2
 60 692 96 745 211 745 c 1xe0
EndSplineSet
EndChar

StartChar: bar
Encoding: 124 124 175
Width: 167
Flags: MW
HStem: -165 21G<20 111 20 20> 678 20G<20 111 111 111>
VStem: 20 91<-165 698 -165 698>
LayerCount: 2
Fore
SplineSet
111 698 m 1
 111 -165 l 1
 20 -165 l 1
 20 698 l 1
 111 698 l 1
EndSplineSet
EndChar

StartChar: braceright
Encoding: 125 125 176
Width: 273
Flags: MW
HStem: -90 85<20 46.5 20 75.5> 660 85<20 43.5>
VStem: 20 151<-90 55 -5 55> 86 85<55 286 366 600>
LayerCount: 2
Fore
SplineSet
20 660 m 1xe0
 20 745 l 1
 135 745 171 692 171 600 c 2
 171 366 l 1
 211 326 l 1
 171 286 l 1
 171 55 l 2
 171 -37 131 -90 20 -90 c 1
 20 -5 l 1xe0
 73 -5 87 23 86 55 c 1
 86 286 l 1
 126 326 l 1
 86 366 l 1
 86 600 l 1xd0
 87 632 67 660 20 660 c 1xe0
EndSplineSet
EndChar

StartChar: ellipsis
Encoding: 8230 8230 177
Width: 447
Flags: MW
HStem: -8 100<53 81 202 230 351 379>
VStem: 17 100<28 56> 166 100<28 56> 315 100<28 56>
CounterMasks: 1 70
LayerCount: 2
Fore
SplineSet
17 42 m 0
 17 70 39 92 67 92 c 0
 95 92 117 70 117 42 c 0
 117 14 95 -8 67 -8 c 0
 39 -8 17 14 17 42 c 0
166 42 m 0
 166 70 188 92 216 92 c 0
 244 92 266 70 266 42 c 0
 266 14 244 -8 216 -8 c 0
 188 -8 166 14 166 42 c 0
315 42 m 0
 315 70 337 92 365 92 c 0
 393 92 415 70 415 42 c 0
 415 14 393 -8 365 -8 c 0
 337 -8 315 14 315 42 c 0
EndSplineSet
EndChar

StartChar: Z
Encoding: 90 90 178
Width: 332
Flags: MW
HStem: 0 88<127 283 20 20> 612 89<40 183 40 283 40 283>
VStem: 40 243<612 701>
LayerCount: 2
Fore
SplineSet
40 701 m 1
 283 701 l 1
 283 612 l 1
 127 88 l 1
 283 88 l 1
 283 0 l 1
 20 0 l 1
 20 88 l 1
 183 612 l 1
 40 612 l 1
 40 701 l 1
EndSplineSet
EndChar

StartChar: V
Encoding: 86 86 179
Width: 387
Flags: MW
HStem: 0 21G<101 253 101 101> 680 20G<20 113 113 113 241 334 334 334>
LayerCount: 2
Fore
SplineSet
334 700 m 1
 253 0 l 1
 101 0 l 1
 20 700 l 1
 113 700 l 1
 177 74 l 1
 241 700 l 1
 334 700 l 1
EndSplineSet
EndChar

StartChar: W
Encoding: 87 87 180
Width: 551
Flags: MW
HStem: 0 21G<64 218 64 64 292 446 292 292> 415 20G<203 309 309 309> 680 20G<20 118 118 118 402 500 500 500>
VStem: 42 93 379 94
LayerCount: 2
Fore
SplineSet
292 0 m 1
 255 267 l 1
 218 0 l 1
 64 0 l 1
 20 700 l 1
 118 700 l 1
 153 97 l 1
 203 435 l 1
 309 435 l 1
 357 97 l 1
 402 700 l 1
 500 700 l 1
 446 0 l 1
 292 0 l 1
EndSplineSet
EndChar

StartChar: Y
Encoding: 89 89 181
Width: 379
Flags: MW
HStem: 0 21G<137 226 137 137> 680 20G<20 112 112 112 251 343 343 343>
VStem: 137 89<0 300 0 300>
LayerCount: 2
Fore
SplineSet
343 700 m 1
 226 300 l 1
 226 0 l 1
 137 0 l 1
 137 300 l 1
 20 700 l 1
 112 700 l 1
 182 431 l 1
 251 700 l 1
 343 700 l 1
EndSplineSet
EndChar

StartChar: X
Encoding: 88 88 182
Width: 353
Flags: MW
HStem: 0 21G<19 112 19 19 223 316 223 223> 678 20G<20 113 113 113 223 316 316 316>
LayerCount: 2
Fore
SplineSet
316 698 m 1
 222 332 l 1
 316 0 l 1
 223 0 l 1
 167 237 l 1
 112 0 l 1
 19 0 l 1
 113 332 l 1
 20 698 l 1
 113 698 l 1
 167 432 l 1
 223 698 l 1
 316 698 l 1
EndSplineSet
EndChar

StartChar: less
Encoding: 60 60 183
Width: 373
Flags: MW
HStem: 92 21G<238 349 238 238> 568 20G<238 349 349 349>
LayerCount: 2
Fore
SplineSet
349 588 m 1
 123 340 l 1
 349 92 l 1
 238 92 l 1
 13 340 l 1
 238 588 l 1
 349 588 l 1
EndSplineSet
EndChar

StartChar: greater
Encoding: 62 62 184
Width: 366
Flags: MW
HStem: 92 21G<13 124 13 13> 568 20G<13 124 124 124>
LayerCount: 2
Fore
SplineSet
239 340 m 1
 13 588 l 1
 124 588 l 1
 349 340 l 1
 124 92 l 1
 13 92 l 1
 239 340 l 1
EndSplineSet
EndChar

StartChar: Agrave
Encoding: 192 192 185
Width: 378
Flags: MW
HStem: 0 21G<0 0 0 89 246 246 246 336> 116 90<117 216 117 229 105 216> 680 20G<92 236 236 236> 869 20G<154 154>
LayerCount: 2
Fore
SplineSet
0 0 m 1
 92 700 l 1
 236 700 l 1
 336 0 l 1
 246 0 l 1
 229 116 l 1
 105 116 l 1
 89 0 l 1
 0 0 l 1
117 206 m 1
 216 206 l 1
 164 615 l 1
 117 206 l 1
154 889 m 1
 240 785 l 1
 194 741 l 1
 88 835 l 1
 154 889 l 1
EndSplineSet
EndChar

StartChar: Aacute
Encoding: 193 193 186
Width: 378
Flags: MW
HStem: 0 21G<0 0 0 89 246 246 246 336> 116 90<117 216 117 229 105 216> 680 20G<92 236 236 236> 869 20G<192 192>
LayerCount: 2
Fore
SplineSet
0 0 m 1
 92 700 l 1
 236 700 l 1
 336 0 l 1
 246 0 l 1
 229 116 l 1
 105 116 l 1
 89 0 l 1
 0 0 l 1
117 206 m 1
 216 206 l 1
 164 615 l 1
 117 206 l 1
106 785 m 1
 192 889 l 1
 258 835 l 1
 152 741 l 1
 106 785 l 1
EndSplineSet
EndChar

StartChar: Acircumflex
Encoding: 194 194 187
Width: 378
Flags: MW
HStem: 0 21G<0 0 0 89 246 246 246 336> 116 90<117 216 117 229 105 216> 680 20G<92 236 236 236> 849 20G<129 129 199 199>
LayerCount: 2
Fore
SplineSet
0 0 m 1
 92 700 l 1
 236 700 l 1
 336 0 l 1
 246 0 l 1
 229 116 l 1
 105 116 l 1
 89 0 l 1
 0 0 l 1
117 206 m 1
 216 206 l 1
 164 615 l 1
 117 206 l 1
33 779 m 1
 129 869 l 1
 164 834 l 1
 199 869 l 1
 295 779 l 1
 249 735 l 1
 164 795 l 1
 79 735 l 1
 33 779 l 1
EndSplineSet
EndChar

StartChar: Atilde
Encoding: 195 195 188
Width: 378
Flags: MW
HStem: 0 21G<0 0 0 89 246 246 246 336> 116 90<117 216 117 229 105 216> 680 20G<92 236 236 236>
LayerCount: 2
Fore
SplineSet
0 0 m 1
 92 700 l 1
 236 700 l 1
 336 0 l 1
 246 0 l 1
 229 116 l 1
 105 116 l 1
 89 0 l 1
 0 0 l 1
117 206 m 1
 216 206 l 1
 164 615 l 1
 117 206 l 1
249 813 m 1
 286 807 l 1
 278 759 233 727 187 736 c 1
 153 741 128 764 118 793 c 1
 99 789 84 774 81 754 c 1
 44 760 l 1
 52 808 96 840 144 831 c 0
 177 825 202 802 211 773 c 1
 230 777 246 792 249 813 c 1
EndSplineSet
EndChar

StartChar: Udieresis
Encoding: 220 220 189
Width: 328
Flags: MW
HStem: 0 89<115 215 176 215 176 303> 749 75<67 142 77 142 77 142 187 252 77 187>
VStem: 20 88<145 149 149 698> 215 88<89 698 0 698>
LayerCount: 2
Fore
SplineSet
20 145 m 1
 20 698 l 1
 108 698 l 1
 108 149 l 2
 108 106 123 89 176 89 c 2
 215 89 l 1
 215 698 l 1
 303 698 l 1
 303 0 l 1
 171 0 l 2
 59 0 21 45 20 145 c 1
67 749 m 1
 77 824 l 1
 142 824 l 1
 142 749 l 1
 67 749 l 1
187 749 m 1
 187 824 l 1
 252 824 l 1
 262 749 l 1
 187 749 l 1
EndSplineSet
EndChar

StartChar: Yacute
Encoding: 221 221 190
Width: 352
Flags: MW
HStem: 0 21G<137 226 137 137> 680 20G<20 112 112 112 251 343 343 343> 869 20G<186 186>
VStem: 137 89<0 300 0 300>
LayerCount: 2
Fore
SplineSet
343 700 m 1
 226 300 l 1
 226 0 l 1
 137 0 l 1
 137 300 l 1
 20 700 l 1
 112 700 l 1
 182 431 l 1
 251 700 l 1
 343 700 l 1
100 785 m 1
 186 889 l 1
 252 835 l 1
 146 741 l 1
 100 785 l 1
EndSplineSet
EndChar

StartChar: Ucircumflex
Encoding: 219 219 191
Width: 328
Flags: MW
HStem: 0 89<115 215 176 215 176 303> 849 20G<129 129 199 199>
VStem: 20 88<145 149 149 698> 215 88<89 698 0 698>
LayerCount: 2
Fore
SplineSet
20 145 m 1
 20 698 l 1
 108 698 l 1
 108 149 l 2
 108 106 123 89 176 89 c 2
 215 89 l 1
 215 698 l 1
 303 698 l 1
 303 0 l 1
 171 0 l 2
 59 0 21 45 20 145 c 1
33 779 m 1
 129 869 l 1
 164 834 l 1
 199 869 l 1
 295 779 l 1
 249 735 l 1
 164 795 l 1
 79 735 l 1
 33 779 l 1
EndSplineSet
EndChar

StartChar: Uacute
Encoding: 218 218 192
Width: 328
Flags: MW
HStem: 0 89<115 215 176 215 176 303> 869 20G<174 174>
VStem: 20 88<145 149 149 698> 215 88<89 698 0 698>
LayerCount: 2
Fore
SplineSet
20 145 m 1
 20 698 l 1
 108 698 l 1
 108 149 l 2
 108 106 123 89 176 89 c 2
 215 89 l 1
 215 698 l 1
 303 698 l 1
 303 0 l 1
 171 0 l 2
 59 0 21 45 20 145 c 1
88 785 m 1
 174 889 l 1
 240 835 l 1
 134 741 l 1
 88 785 l 1
EndSplineSet
EndChar

StartChar: Odieresis
Encoding: 214 214 193
Width: 351
Flags: MW
HStem: -14 88<144 183.5 144 215.5> 628 89<143.5 185.5> 749 75<68 143 78 143 78 143 188 253 78 188>
VStem: 20 88<131 134 134 569> 20 123 222 88<134 569 569 572>
LayerCount: 2
Fore
SplineSet
20 131 m 2xf4
 20 572 l 2
 20 666 62 717 165 717 c 0
 268 717 310 666 310 572 c 2
 310 131 l 2
 310 44 265 -14 166 -14 c 0
 66 -14 20 37 20 131 c 2xf4
108 134 m 2
 108 98 123 74 165 74 c 0
 202 74 222 93 222 134 c 2
 222 569 l 2
 222 604 206 628 165 628 c 0
 122 628 108 604 108 569 c 2
 108 134 l 2
68 749 m 1
 78 824 l 1
 143 824 l 1
 143 749 l 1xec
 68 749 l 1
188 749 m 1
 188 824 l 1
 253 824 l 1
 263 749 l 1
 188 749 l 1
EndSplineSet
EndChar

StartChar: Otilde
Encoding: 213 213 194
Width: 351
Flags: MW
HStem: -14 88<144 183.5 144 215.5> 628 89<143.5 185.5>
VStem: 20 88<131 134 134 569> 222 88<134 569 569 572>
LayerCount: 2
Fore
SplineSet
20 131 m 2
 20 572 l 2
 20 666 62 717 165 717 c 0
 268 717 310 666 310 572 c 2
 310 131 l 2
 310 44 265 -14 166 -14 c 0
 66 -14 20 37 20 131 c 2
108 134 m 2
 108 98 123 74 165 74 c 0
 202 74 222 93 222 134 c 2
 222 569 l 2
 222 604 206 628 165 628 c 0
 122 628 108 604 108 569 c 2
 108 134 l 2
240 813 m 1
 277 807 l 1
 269 759 224 727 178 736 c 1
 144 741 119 764 109 793 c 1
 90 789 75 774 72 754 c 1
 35 760 l 1
 43 808 87 840 135 831 c 0
 168 825 193 802 202 773 c 1
 221 777 237 792 240 813 c 1
EndSplineSet
EndChar

StartChar: Ocircumflex
Encoding: 212 212 195
Width: 351
Flags: MW
HStem: -14 88<144 183.5 144 215.5> 628 89<143.5 185.5> 849 20G<127 127 197 197>
VStem: 20 88<131 134 134 569> 222 88<134 569 569 572>
LayerCount: 2
Fore
SplineSet
20 131 m 2
 20 572 l 2
 20 666 62 717 165 717 c 0
 268 717 310 666 310 572 c 2
 310 131 l 2
 310 44 265 -14 166 -14 c 0
 66 -14 20 37 20 131 c 2
108 134 m 2
 108 98 123 74 165 74 c 0
 202 74 222 93 222 134 c 2
 222 569 l 2
 222 604 206 628 165 628 c 0
 122 628 108 604 108 569 c 2
 108 134 l 2
31 779 m 1
 127 869 l 1
 162 834 l 1
 197 869 l 1
 293 779 l 1
 247 735 l 1
 162 795 l 1
 77 735 l 1
 31 779 l 1
EndSplineSet
EndChar

StartChar: Oacute
Encoding: 211 211 196
Width: 351
Flags: MW
HStem: -14 88<144 183.5 144 215.5> 628 89<143.5 185.5> 869 20G<186 186>
VStem: 20 88<131 134 134 569> 222 88<134 569 569 572>
LayerCount: 2
Fore
SplineSet
20 131 m 2
 20 572 l 2
 20 666 62 717 165 717 c 0
 268 717 310 666 310 572 c 2
 310 131 l 2
 310 44 265 -14 166 -14 c 0
 66 -14 20 37 20 131 c 2
108 134 m 2
 108 98 123 74 165 74 c 0
 202 74 222 93 222 134 c 2
 222 569 l 2
 222 604 206 628 165 628 c 0
 122 628 108 604 108 569 c 2
 108 134 l 2
100 785 m 1
 186 889 l 1
 252 835 l 1
 146 741 l 1
 100 785 l 1
EndSplineSet
EndChar

StartChar: Ograve
Encoding: 210 210 197
Width: 351
Flags: MW
HStem: -14 88<144 183.5 144 215.5> 628 89<143.5 185.5> 869 20G<133 133>
VStem: 20 88<131 134 134 569> 222 88<134 569 569 572>
LayerCount: 2
Fore
SplineSet
20 131 m 2
 20 572 l 2
 20 666 62 717 165 717 c 0
 268 717 310 666 310 572 c 2
 310 131 l 2
 310 44 265 -14 166 -14 c 0
 66 -14 20 37 20 131 c 2
108 134 m 2
 108 98 123 74 165 74 c 0
 202 74 222 93 222 134 c 2
 222 569 l 2
 222 604 206 628 165 628 c 0
 122 628 108 604 108 569 c 2
 108 134 l 2
133 889 m 1
 219 785 l 1
 173 741 l 1
 67 835 l 1
 133 889 l 1
EndSplineSet
EndChar

StartChar: Ntilde
Encoding: 209 209 198
Width: 355
Flags: MW
HStem: 0 21G<21 108 21 21 241 328 241 241>
VStem: 21 87<0 531 0 698> 241 87<0 317 317 317 483 698 0 698>
LayerCount: 2
Fore
SplineSet
241 0 m 1
 241 317 l 1
 108 531 l 1
 108 0 l 1
 21 0 l 1
 21 698 l 1
 108 698 l 1
 241 483 l 1
 241 698 l 1
 328 698 l 1
 328 0 l 1
 241 0 l 1
262 813 m 1
 299 807 l 1
 291 759 246 727 200 736 c 1
 166 741 141 764 131 793 c 1
 112 789 97 774 94 754 c 1
 57 760 l 1
 65 808 109 840 157 831 c 0
 190 825 215 802 224 773 c 1
 243 777 259 792 262 813 c 1
EndSplineSet
EndChar

StartChar: Eth
Encoding: 208 208 199
Width: 332
Flags: MW
HStem: 0 83<110 147 147 152> 282 85<-74 20 -74 20 110 181> 611 84<110 147 110 110>
VStem: 20 90<83 282 83 282 83 282 367 611> 213 90<143 145 145 550>
LayerCount: 2
Fore
SplineSet
-74 367 m 1
 20 367 l 1
 20 695 l 1
 152 695 l 2
 222 695 244 686 271 658 c 0
 298 630 303 579 303 550 c 2
 303 145 l 2
 303 116 298 65 271 37 c 0
 244 9 222 0 152 0 c 2
 20 0 l 1
 20 282 l 1
 -74 282 l 1
 -74 367 l 1
147 611 m 2
 110 611 l 1
 110 367 l 1
 181 367 l 1
 181 282 l 1
 110 282 l 1
 110 83 l 1
 147 83 l 2
 180 83 188 83 201 96 c 0
 213 108 213 143 213 143 c 1
 213 551 l 1
 213 551 213 582 204 594 c 0
 193 608 180 611 147 611 c 2
EndSplineSet
EndChar

StartChar: Idieresis
Encoding: 207 207 200
Width: 238
Flags: MW
HStem: 0 88<20 58 146 184 20 58> 612 88<20 58 20 184 146 146 146 184> 749 75<5 80 15 80 15 80 125 190 15 125>
VStem: 20 164<0 88 0 88 612 700> 58 88<88 612 88 612>
LayerCount: 2
Fore
SplineSet
184 0 m 1xf0
 20 0 l 1
 20 88 l 1xf0
 58 88 l 1
 58 612 l 1xe8
 20 612 l 1
 20 700 l 1
 184 700 l 1
 184 612 l 1xf0
 146 612 l 1
 146 88 l 1xe8
 184 88 l 1
 184 0 l 1xf0
5 749 m 1
 15 824 l 1
 80 824 l 1
 80 749 l 1
 5 749 l 1
125 749 m 1
 125 824 l 1
 190 824 l 1
 200 749 l 1
 125 749 l 1
EndSplineSet
EndChar

StartChar: Icircumflex
Encoding: 206 206 201
Width: 238
Flags: MW
HStem: 0 88<20 58 146 184 20 58> 612 88<20 58 20 184 146 146 146 184> 849 20G<68 68 138 138>
VStem: 20 164<0 88 0 88 612 700> 58 88<88 612 88 612>
LayerCount: 2
Fore
SplineSet
184 0 m 1xf0
 20 0 l 1
 20 88 l 1xf0
 58 88 l 1
 58 612 l 1xe8
 20 612 l 1
 20 700 l 1
 184 700 l 1
 184 612 l 1xf0
 146 612 l 1
 146 88 l 1xe8
 184 88 l 1
 184 0 l 1xf0
-28 779 m 1
 68 869 l 1
 103 834 l 1
 138 869 l 1
 234 779 l 1
 188 735 l 1
 103 795 l 1
 18 735 l 1
 -28 779 l 1
EndSplineSet
EndChar

StartChar: Iacute
Encoding: 205 205 202
Width: 238
Flags: MW
HStem: 0 88<20 58 146 184 20 58> 612 88<20 58 20 184 146 146 146 184> 869 20G<113 113>
VStem: 20 164<0 88 0 88 612 700> 58 88<88 612 88 612>
LayerCount: 2
Fore
SplineSet
184 0 m 1xf0
 20 0 l 1
 20 88 l 1xf0
 58 88 l 1
 58 612 l 1xe8
 20 612 l 1
 20 700 l 1
 184 700 l 1
 184 612 l 1xf0
 146 612 l 1
 146 88 l 1xe8
 184 88 l 1
 184 0 l 1xf0
27 785 m 1
 113 889 l 1
 179 835 l 1
 73 741 l 1
 27 785 l 1
EndSplineSet
EndChar

StartChar: Igrave
Encoding: 204 204 203
Width: 238
Flags: MW
HStem: 0 88<20 58 146 184 20 58> 612 88<20 58 20 184 146 146 146 184> 869 20G<93 93>
VStem: 20 164<0 88 0 88 612 700> 58 88<88 612 88 612>
LayerCount: 2
Fore
SplineSet
184 0 m 1xf0
 20 0 l 1
 20 88 l 1xf0
 58 88 l 1
 58 612 l 1xe8
 20 612 l 1
 20 700 l 1
 184 700 l 1
 184 612 l 1xf0
 146 612 l 1
 146 88 l 1xe8
 184 88 l 1
 184 0 l 1xf0
93 889 m 1
 179 785 l 1
 133 741 l 1
 27 835 l 1
 93 889 l 1
EndSplineSet
EndChar

StartChar: Edieresis
Encoding: 203 203 204
Width: 304
Flags: MW
HStem: 0 89<109 254 109 254 109 254> 345 88<109 254 109 254> 433 179<109 254 109 254> 612 88<109 254> 749 75<41 116 51 116 51 116 51 161 161 226>
VStem: 21 88<89 345 433 612> 21 233<0 89 345 433 612 700 0 89> 116 45<749 824 749 824>
LayerCount: 2
Fore
SplineSet
21 700 m 1xda
 21 0 l 1
 254 0 l 1
 254 89 l 1xda
 109 89 l 1
 109 345 l 1xdd
 254 345 l 1
 254 433 l 1xda
 109 433 l 1
 109 612 l 1xad
 254 612 l 1
 254 700 l 1
 21 700 l 1xda
161 749 m 1xdd
 161 824 l 1
 226 824 l 1
 236 749 l 1
 161 749 l 1xdd
41 749 m 1
 51 824 l 1
 116 824 l 1
 116 749 l 1
 41 749 l 1
EndSplineSet
EndChar

StartChar: Ecircumflex
Encoding: 202 202 205
Width: 304
Flags: MW
HStem: 0 89<109 254 109 254 109 254> 345 88<109 254 109 254> 612 88<109 254> 849 20G<104 104 174 174>
VStem: 21 88<89 345 433 612> 21 233<0 89 345 433 612 700 0 89>
LayerCount: 2
Fore
SplineSet
21 700 m 1xf4
 21 0 l 1
 254 0 l 1
 254 89 l 1xf4
 109 89 l 1
 109 345 l 1xf8
 254 345 l 1
 254 433 l 1xf4
 109 433 l 1
 109 612 l 1xf8
 254 612 l 1
 254 700 l 1
 21 700 l 1xf4
8 779 m 1
 104 869 l 1
 139 834 l 1
 174 869 l 1
 270 779 l 1
 224 735 l 1
 139 795 l 1
 54 735 l 1
 8 779 l 1
EndSplineSet
EndChar

StartChar: Eacute
Encoding: 201 201 206
Width: 304
Flags: MW
HStem: 0 89<109 254 109 254 109 254> 345 88<109 254 109 254> 612 88<109 254> 869 20G<149 149>
VStem: 21 88<89 345 433 612> 21 233<0 89 345 433 612 700 0 89>
LayerCount: 2
Fore
SplineSet
21 700 m 1xf4
 21 0 l 1
 254 0 l 1
 254 89 l 1xf4
 109 89 l 1
 109 345 l 1xf8
 254 345 l 1
 254 433 l 1xf4
 109 433 l 1
 109 612 l 1xf8
 254 612 l 1
 254 700 l 1
 21 700 l 1xf4
63 785 m 1
 149 889 l 1
 215 835 l 1
 109 741 l 1xf8
 63 785 l 1
EndSplineSet
EndChar

StartChar: Egrave
Encoding: 200 200 207
Width: 304
Flags: MW
HStem: 0 89<109 254 109 254 109 254> 345 88<109 254 109 254> 612 88<109 254> 869 20G<129 129>
VStem: 21 88<89 345 433 612> 21 233<0 89 345 433 612 700 0 89>
LayerCount: 2
Fore
SplineSet
21 700 m 1xf4
 21 0 l 1
 254 0 l 1
 254 89 l 1xf4
 109 89 l 1
 109 345 l 1xf8
 254 345 l 1
 254 433 l 1xf4
 109 433 l 1
 109 612 l 1xf8
 254 612 l 1
 254 700 l 1
 21 700 l 1xf4
129 889 m 1
 215 785 l 1
 169 741 l 1
 63 835 l 1
 129 889 l 1
EndSplineSet
EndChar

StartChar: Ccedilla
Encoding: 199 199 208
Width: 299
Flags: MW
HStem: -107 21G<140 168 140 140> -101 20G<140 168 168 173> -12 21G<166 179> -1 88<161 248 166 248 175 182 182 248 175 250> 0 21G<140 166 140 144 140 140> 610 88<172 185 185 248>
VStem: 21 88<147 550 147 553 147 572.5>
LayerCount: 2
Fore
SplineSet
166 -1 m 1x56
 166 0 l 1
 140 0 l 1x4e
 93 3 74 13 53 36 c 0
 26 64 21 105 21 144 c 2
 21 553 l 2
 21 592 26 633 53 661 c 0
 80 689 102 698 172 698 c 2
 250 698 l 1
 248 610 l 1
 185 610 l 2
 146 610 129 610 118 594 c 0
 109 581 109 550 109 550 c 1
 109 147 l 1
 109 147 112 118 121 105 c 0
 132 89 146 87 175 87 c 2
 248 87 l 1
 250 -1 l 1
 182 -1 l 1
 166 -1 l 1x56
140 0 m 1x4e
 148 0 156 -1 166 -1 c 1x56
 166 -12 l 1
 192 -12 196 -15 204 -23 c 0
 212 -32 214 -44 214 -56 c 2
 214 -63 l 2
 214 -75 212 -87 204 -96 c 0
 196 -104 189 -107 168 -107 c 2
 140 -107 l 1xa6
 140 -81 l 1
 168 -81 l 2
 178 -81 182 -81 185 -76 c 0
 188 -72 188 -63 188 -63 c 1
 188 -56 l 1
 188 -56 188 -47 185 -43 c 0
 182 -38 176 -38 166 -38 c 2
 140 -38 l 1
 140 0 l 1x4e
EndSplineSet
EndChar

StartChar: AE
Encoding: 198 198 209
Width: 552
Flags: MW
HStem: 0 91<290 523 380 523 380 523> 115 90<154 290 183 290 183 290> 344 90<380 523 380 523> 610 90<380 523 380 380>
VStem: 290 90<91 115 115 115 205 344 434 536 536 536> 290 233<0 91 0 115 0 115 344 434>
LayerCount: 2
Fore
SplineSet
154 115 m 1xf8
 117 0 l 1
 22 0 l 1
 247 700 l 1
 523 700 l 1
 523 610 l 1xf4
 380 610 l 1
 380 434 l 1xf8
 523 434 l 1
 523 344 l 1xf4
 380 344 l 1
 380 91 l 1xf8
 523 91 l 1
 523 0 l 1xf4
 290 0 l 1
 290 115 l 1
 154 115 l 1xf8
290 205 m 1
 290 536 l 1
 183 205 l 1
 290 205 l 1
EndSplineSet
EndChar

StartChar: Aring
Encoding: 197 197 210
Width: 363
Flags: MW
HStem: 0 21G<0 0 0 89 246 246 246 336> 116 90<117 216 117 229 105 216> 680 20G<92 236 236 236>
LayerCount: 2
Fore
SplineSet
0 0 m 1
 92 700 l 1
 236 700 l 1
 336 0 l 1
 246 0 l 1
 229 116 l 1
 105 116 l 1
 89 0 l 1
 0 0 l 1
117 206 m 1
 216 206 l 1
 164 615 l 1
 117 206 l 1
EndSplineSet
EndChar

StartChar: Adieresis
Encoding: 196 196 211
Width: 378
Flags: MW
HStem: 0 21G<0 0 0 89 246 246 246 336> 116 90<117 216 117 229 105 216> 680 20G<92 236 236 236> 749 75<67 142 77 142 77 142 187 252 77 187>
VStem: 142 45<749 824 749 824>
LayerCount: 2
Fore
SplineSet
0 0 m 1
 92 700 l 1
 236 700 l 1
 336 0 l 1
 246 0 l 1
 229 116 l 1
 105 116 l 1
 89 0 l 1
 0 0 l 1
117 206 m 1
 216 206 l 1
 164 615 l 1
 117 206 l 1
67 749 m 1
 77 824 l 1
 142 824 l 1
 142 749 l 1
 67 749 l 1
187 749 m 1
 187 824 l 1
 252 824 l 1
 262 749 l 1
 187 749 l 1
EndSplineSet
EndChar

StartChar: degree
Encoding: 176 176 212
Width: 273
Flags: MW
HStem: 435 65<109.5 128.5 109.5 146.5> 568 65<109.5 128.5>
VStem: 20 65<524.5 543.5 524.5 561.5> 153 65<524.5 543.5>
LayerCount: 2
Fore
SplineSet
20 534 m 0
 20 589 64 633 119 633 c 0
 174 633 218 589 218 534 c 0
 218 479 174 435 119 435 c 0
 64 435 20 479 20 534 c 0
85 534 m 0
 85 515 100 500 119 500 c 0
 138 500 153 515 153 534 c 0
 153 553 138 568 119 568 c 0
 100 568 85 553 85 534 c 0
EndSplineSet
EndChar

StartChar: dollar
Encoding: 36 36 213
Width: 358
Flags: MW
HStem: -41 21G<140 140 140 190> 467 20G<140 190 190 190>
VStem: 20 85<312 325.5 312 349.5> 140 50<-41 -10 -10 -10 75 165 270 359 445 487> 211 92
LayerCount: 2
Fore
SplineSet
140 -41 m 1
 140 -10 l 1
 75 -3 24 34 24 130 c 1
 112 130 l 1
 112 103 122 84 140 75 c 1
 140 181 l 1
 133 183 126 185 119 188 c 0
 53 209 20 254 20 313 c 0
 20 386 65 437 140 445 c 1
 140 487 l 1
 190 487 l 1
 190 444 l 1
 253 436 299 397 299 305 c 1
 211 305 l 1
 211 328 204 347 190 359 c 1
 190 253 l 1
 195 251 201 249 208 248 c 0
 269 232 303 196 303 122 c 0
 303 51 260 1 190 -9 c 1
 190 -41 l 1
 140 -41 l 1
105 324 m 0
 105 300 106 286 140 270 c 1
 140 368 l 1
 108 359 105 327 105 324 c 0
218 120 m 0
 218 144 209 156 190 165 c 1
 190 73 l 1
 218 84 218 116 218 120 c 0
EndSplineSet
EndChar

StartChar: bullet
Encoding: 8226 8226 214
Width: 727
Flags: MW
HStem: 12 21G<350.5 354 354 415> 15 31<166 306 186 306 186 335> 73 31<12 132 12 162 12 162 12 163> 73 48 161 31<173 223 173 223> 235 26 305 31<397 636 382 667> 369 31<197 398 206 367>
VStem: 152 30<266 348 235 366> 318 157<144 181 134.5 183 134.5 183>
LayerCount: 2
Fore
SplineSet
32 235 m 1x6fc0
 32 266 l 1
 152 266 l 1
 152 348 l 2
 152 384 166 400 206 400 c 2
 398 400 l 1
 398 349 l 2
 398 344 398 340 397 336 c 1
 667 336 l 1
 667 285 l 2
 667 245 651 231 615 231 c 2
 487 231 l 1
 487 222 l 2
 487 203 483 189 475 181 c 1
 475 144 l 2
 475 125 471 111 463 103 c 1
 463 66 l 2
 463 28 448 13 415 12 c 1
 354 12 l 2x9fc0
 347 12 341 13 335 15 c 1
 186 15 l 2
 146 15 132 31 132 67 c 2
 132 73 l 1
 12 73 l 1
 12 104 l 1
 162 104 l 1
 162 74 l 1
 163 73 l 1
 162 73 l 1
 162 67 l 2
 162 53 168 46 186 46 c 2
 306 46 l 1
 306 105 l 1
 328 105 l 1
 321 113 318 126 318 144 c 2
 318 183 l 1
 340 183 l 1
 333 191 330 204 330 222 c 2
 330 261 l 1
 615 261 l 2
 629 261 636 267 636 285 c 2
 636 305 l 1
 382 305 l 1
 374 298 361 295 345 295 c 2
 269 295 l 1
 269 325 l 1
 345 325 l 2
 359 325 367 331 367 349 c 2
 367 369 l 1
 206 369 l 2
 188 369 182 362 182 348 c 2
 182 235 l 1
 32 235 l 1x6fc0
277 250 m 1
 277 213 l 2
 277 177 263 161 223 161 c 2
 142 161 l 1
 173 192 l 1
 223 192 l 2
 241 192 247 199 247 213 c 2
 247 250 l 1
 277 250 l 1
432 75 m 1
 337 75 l 1
 337 62 l 1
 338 49 344 44 354 43 c 1
 415 43 l 1
 426 44 432 49 432 66 c 2
 432 75 l 1
444 153 m 1
 349 153 l 1
 349 144 l 2
 349 128 355 122 366 121 c 1
 423 121 l 2
 437 121 444 126 444 144 c 2
 444 153 l 1
456 222 m 2
 456 231 l 1
 361 231 l 1
 361 222 l 2
 361 204 369 199 383 199 c 2
 439 199 l 1
 450 200 456 205 456 222 c 2
EndSplineSet
EndChar

StartChar: A.alt
Encoding: 65567 -1 215
Width: 390
Flags: MW
HStem: 0 88<100 231 100 336> 680 20G<92 236 236 236>
LayerCount: 2
Fore
SplineSet
0 0 m 1
 92 700 l 1
 236 700 l 1
 336 0 l 1
 0 0 l 1
100 88 m 1
 231 88 l 1
 164 615 l 1
 100 88 l 1
EndSplineSet
EndChar

StartChar: Q.alt
Encoding: 65568 -1 216
Width: 366
Flags: MW
HStem: -61 21G<262 262> -17 88<144 175 144 181> 625 89<153.5 185.5>
VStem: 20 88<128 131 131 378> 222 88<314 566 566 569>
LayerCount: 2
Fore
SplineSet
262 -61 m 1
 241 -2 l 1
 221 -12 196 -17 166 -17 c 0
 66 -17 20 34 20 128 c 2
 20 569 l 2
 20 663 62 714 165 714 c 0
 268 714 310 663 310 569 c 2
 310 128 l 2
 310 110 308 94 304 79 c 1
 344 -33 l 1
 262 -61 l 1
165 625 m 0
 142 625 128 618 119 607 c 1
 222 314 l 1
 222 566 l 2
 222 601 206 625 165 625 c 0
108 131 m 2
 108 95 123 71 165 71 c 0
 185 71 200 76 210 88 c 1
 108 378 l 1
 108 131 l 2
EndSplineSet
EndChar

StartChar: R.alt
Encoding: 65569 -1 217
Width: 341
Flags: MW
HStem: 0 21G<20 107 20 20 221 311 221 221> 618 82<20 49 20 141 137 137 137 138>
VStem: 20 87<0 258 0 340 0 341 0 341> 204 88<399 405 405 555>
LayerCount: 2
Fore
SplineSet
20 341 m 1
 21 341 107 340 107 340 c 1
 117 340 l 1
 49 618 l 1
 20 618 l 1
 20 700 l 1
 141 700 l 2
 252 700 292 651 292 555 c 2
 292 405 l 2
 292 369 283 304 242 281 c 1
 311 0 l 1
 221 0 l 1
 157 258 l 1
 107 258 l 1
 107 0 l 1
 20 0 l 1
 20 341 l 1
138 618 m 2
 137 618 l 1
 200 367 l 1
 203 375 203 385 204 399 c 1
 204 558 l 1
 205 600 190 618 138 618 c 2
EndSplineSet
EndChar

StartChar: M.alt
Encoding: 65570 -1 218
Width: 456
Flags: MW
HStem: 0 21G<20 103 20 20 317 317 317 400> 678 20G<20 73 73 73 347 400 400 400>
VStem: 20 83<0 514 0 698> 317 83<0 524 524 524>
LayerCount: 2
Fore
SplineSet
210 375 m 1
 103 514 l 1
 103 0 l 1
 20 0 l 1
 20 698 l 1
 73 698 l 1
 210 499 l 1
 347 698 l 1
 400 698 l 1
 400 0 l 1
 317 0 l 1
 317 524 l 1
 210 375 l 1
EndSplineSet
EndChar

StartChar: asciitilde
Encoding: 126 126 219
Width: 629
Flags: W
LayerCount: 2
Fore
SplineSet
475 291 m 1
 548 280 l 1
 532 185 443 122 352 139 c 1
 285 149 236 195 216 252 c 1
 178 244 149 214 143 175 c 1
 70 187 l 1
 86 282 172 345 267 327 c 0
 332 315 382 270 400 213 c 1
 437 220 469 250 475 291 c 1
EndSplineSet
EndChar

StartChar: asciicircum
Encoding: 94 94 220
Width: 569
Flags: MW
HStem: 385 21G<151 151 429 429> 584 20G<233 233 347 347>
LayerCount: 2
Fore
SplineSet
76 457 m 1
 233 604 l 1
 290 547 l 1
 347 604 l 1
 504 457 l 1
 429 385 l 1
 290 483 l 1
 151 385 l 1
 76 457 l 1
EndSplineSet
EndChar
